<?xml version="1.0" standalone="no"?>
<!DOCTYPE svg PUBLIC "-//W3C//DTD SVG 1.1//EN" "http://www.w3.org/Graphics/SVG/1.1/DTD/svg11.dtd" >
<svg xmlns="http://www.w3.org/2000/svg">
<metadata>
This is a custom SVG webfont generated by Font Squirrel.
Copyright   : Copyright c 2006 by Nate Piekos Blambotcom All rights reserved
Designer    : Nate Piekos
Foundry     : Nate Piekos Blambotcom
</metadata>
<defs>
<font id="webfontOymREi7c" horiz-adv-x="1585" >
<font-face units-per-em="2048" ascent="1638" descent="-410" />
<missing-glyph horiz-adv-x="847" />
<glyph unicode=" "  horiz-adv-x="847" />
<glyph unicode="&#x09;" horiz-adv-x="847" />
<glyph unicode="&#xa0;" horiz-adv-x="847" />
<glyph unicode="!" horiz-adv-x="811" d="M125 141q0 176 14 256q10 51 140 52q111 0 110 -35q0 -29 -24 -144q-25 -113 -39 -141q-20 -47 -109 -47q-92 0 -92 59zM217 713q0 39 14 88q20 80 25 88l90 493q68 338 133 461q35 63 166 64q47 0 109 -13q84 -18 84 -51q0 -16 -131 -293l-168 -358q-90 -211 -113 -375 l-12 -112q-16 -53 -90 -54q-107 1 -107 62z" />
<glyph unicode="&#x22;" horiz-adv-x="960" d="M193 1759q0 53 47 84q49 33 102 33q98 0 98 -80q0 -399 -30 -586q-16 -92 -115 -92q-90 0 -90 121q0 35 2 61q4 53 4 60q0 53 -10 201q-8 116 -8 198zM586 1798q0 55 49 86q43 31 98 31q98 0 98 -80q0 -416 -28 -586q-14 -98 -107 -98q-100 0 -100 160q0 33 2 55.5 t2 48.5q0 68 -6 193q-8 167 -8 190z" />
<glyph unicode="#" horiz-adv-x="1587" d="M143 588q0 55 56 65l198 6q2 125 13 261q-66 -12 -97 -13q-70 0 -118 49q-51 51 -52 119q0 52 56 62l223 6q2 106 27 448q12 121 172 121q72 0 71 -49q0 -82 -26 -256q-33 -186 -37 -254q211 12 364 49q-4 279 -4 293q0 117 47 164t164 47q74 0 74 -57q0 -59 -17 -191 q-16 -123 -20 -190q90 27 100 26q47 0 88 -59q43 -61 43 -113q0 -45 -36 -59q-25 -10 -205 -35q-2 -47 -2 -182v-64q98 29 114 29q51 0 91 -61q41 -66 40 -113q0 -39 -38 -55q-25 -10 -197 -35q41 -293 41 -383q0 -43 -64 -74q-53 -25 -102 -24q-63 0 -76 45q-16 55 -18 194 v207q-182 -27 -414 -53q4 -135 14 -244l11 -98q0 -47 -56 -82q-49 -27 -98 -27q-94 0 -94 86q0 160 10 340q-68 -8 -94 -8q-59 0 -105 51q-47 54 -47 111zM602 668q225 14 404 55q-8 221 -9 268q-59 -10 -385 -49q-10 -133 -10 -274z" />
<glyph unicode="$" horiz-adv-x="1697" d="M143 1012q0 160 219 374q199 193 367 267v45q-2 20 -2 45q0 102 51 162q53 61 150 61q82 0 82 -76q0 -25 -15 -159q125 16 176 16q55 0 80 -12q35 -23 35 -78q0 -49 17 -117q18 -78 18 -115q0 -43 -57.5 -88t-102.5 -45q-35 0 -59 68q-4 4 -29 96q-16 2 -49 2 q-31 0 -47 -2q-14 -217 -16 -389q106 -10 278 -20q150 -14 270 -56q66 -25 66 -162q0 -39 -12 -81q-123 -436 -566 -652q16 -115 17 -119q0 -51 -56 -90q-53 -39 -110 -39q-61 0 -78 56q-4 29 -4 104q-150 -35 -225 -35q-174 0 -297 156q-63 76 -64 131q0 31 27 94 q31 66 63 66q6 0 66 -53q66 -57 147 -97q113 -53 242 -53h33q-12 266 -19 582l-446 28q-119 12 -141 103q-9 33 -9 82zM430 1104q0 -27 150 -27q43 0 77.5 2t73.5 2v156q-2 72 -2 156q-72 -35 -178 -125q-121 -103 -121 -164zM961 774q0 -227 20 -506q119 47 205 146 q100 109 100 225q0 72 -131 106q-4 4 -194 29z" />
<glyph unicode="%" horiz-adv-x="1822" d="M119 975q0 201 225 481q190 244 420 244q135 0 246 -98q100 -84 157 -220q49 80 205 291q57 68 133 68q45 0 103 -27q61 -31 61 -78q0 -23 -14 -43l-133 -159q-109 -131 -267 -342q37 4 56 4q150 0 288 -146q137 -143 138 -297q0 -225 -269 -389q-236 -141 -477 -141 q-221 0 -299 127l-88 -174q-63 -100 -145 -101q-49 0 -90 21q-53 25 -54 67q0 28 455 725q-168 -59 -321 -59q-135 0 -224 53q-106 64 -106 193zM362 1126q0 -96 111 -151q94 -45 197 -45q127 0 209 57q98 65 98 184q0 113 -59 197q-66 96 -175 96q-117 0 -249 -110 q-132 -111 -132 -228zM891 530q0 -88 106 -149q92 -51 191 -51q115 0 215 53q119 63 119 172q0 115 -66 205q-72 102 -180 102q-111 0 -248 -113t-137 -219z" />
<glyph unicode="&#x26;" horiz-adv-x="1599" d="M104 428q0 175 148 320q102 100 303 202q-170 102 -170 291q0 180 209 401q129 141 313 142q193 0 334 -154q96 -106 96 -174q0 -35 -16 -61q-18 -37 -45 -37q-10 0 -129 78q-115 76 -209 75q-113 0 -205 -92t-92 -209q0 -104 59 -135q27 -16 129 -22q90 -6 134 -39 q66 -55 65 -125q0 -78 -108 -101q-145 -14 -232 -26q-152 -25 -225 -121q-66 -84 -66 -176q0 -138 135 -227q115 -76 265 -76q197 0 460 145l3 51q2 106 -25 256q-39 240 -39 265q0 39 66 69q53 25 100 25q55 0 74 -41q29 -68 28 -608q0 -352 -2 -377q-4 -59 -53 -96 t-113 -37q-76 0 -75 57q0 49 22 205q-227 -106 -455 -107q-248 0 -442 107q-242 125 -242 352z" />
<glyph unicode="'" horiz-adv-x="671" d="M129 1309q0 27 33 96q16 37 90 229q55 151 98 228q31 61 107 61q47 0 90 -25q49 -31 49 -73q0 -25 -121 -271q-113 -223 -151 -282q-33 -51 -80 -51t-76 22q-39 27 -39 66z" />
<glyph unicode="(" horiz-adv-x="1185" d="M82 739q0 287 266 598q135 154 281 291q221 203 313 203q45 0 102 -37q53 -35 54 -82q0 -25 -21 -45q-41 -41 -102 -80q-100 -61 -111 -69q-559 -418 -559 -813q0 -193 172 -343q143 -123 352 -186q78 -16 199 -61q53 -29 53 -99q0 -47 -24 -96q-27 -55 -72 -59 q-74 43 -207 100q-156 68 -209 96q-209 108 -338 277q-149 188 -149 405z" />
<glyph unicode=")" horiz-adv-x="1255" d="M125 -16q0 25 18 43q33 35 103 79q100 61 110 70q557 414 557 813q0 190 -172 342q-145 123 -350 187q-72 14 -198 61q-49 31 -50 100q0 45 23 97q29 55 72 59q41 -25 206 -100q150 -61 209 -97q211 -119 340 -280q147 -190 148 -406q0 -281 -269 -596 q-137 -160 -280 -288q-221 -203 -313 -203q-51 0 -99 35q-55 37 -55 84z" />
<glyph unicode="*" horiz-adv-x="985" d="M154 1679q0 33 18 76q18 45 49 45q14 0 215 -125q-8 49 -17 96.5l-12.5 65.5t-3.5 21q0 27 46 49q31 18 69 18q43 0 51 -29q12 -39 17 -129v-131q152 170 176 170q37 0 76 -32q41 -35 41 -66q0 -18 -207 -188l54.5 -35t53.5 -35q66 -49 66 -102q0 -29 -18.5 -64 t-45.5 -35q-8 0 -192 150v-189q0 -41 -35 -67.5t-78 -26.5q-53 0 -53 41q0 12 16 180q-68 -55 -71 -59q-47 -35 -84 -35q-33 0 -72 29q-35 27 -35 59q0 23 113 94l141 86q-114 49 -264 129q-14 12 -14 39z" />
<glyph unicode="+" horiz-adv-x="1415" d="M133 848q0 57 43 65h88h176q55 0 133 5q-35 291 -34 385q0 57 53 96t113 39q35 0 51 -12.5t14 -36.5v-211q0 -133 6 -242q74 12 205 55q129 43 203 43q45 0 82 -65q33 -59 32.5 -106.5t-38.5 -63.5q-80 -29 -222 -43q-152 -16 -239 -23q14 -61 53 -174q37 -111 37 -172 q0 -43 -64 -82q-55 -31 -106 -31t-66 37q-23 61 -39 197l-18 205q-326 -29 -330 -29q-57 0 -96 55q-37 50 -37 109z" />
<glyph unicode="," horiz-adv-x="790" d="M160 -215q0 35 30 96q20 39 91 230q55 147 98 227q35 61 108 61q47 0 91 -24q51 -33 51 -74q0 -27 -123 -268q-119 -236 -150 -281q-35 -53 -82 -53q-45 0 -77 22q-37 25 -37 64z" />
<glyph unicode="-" horiz-adv-x="1329" d="M92 797q0 72 121 71q27 0 43 -2h35q244 0 426 33q31 6 225 66q160 53 195 53q49 0 86 -66q31 -59 30 -108q0 -39 -32 -58q-51 -27 -478 -92q-412 -61 -512 -61q-59 0 -98 51q-41 54 -41 113z" />
<glyph unicode="." horiz-adv-x="636" d="M207 88q0 182 16 266q10 55 135 56q113 0 113 -43q0 -31 -25 -148q-25 -113 -38 -143q-20 -51 -109 -51q-92 0 -92 63z" />
<glyph unicode="/" horiz-adv-x="1421" d="M66 86q0 33 69 135l92 137l719 1090q41 63 174 246q55 61 144 61q57 0 100 -22q53 -29 53 -80q0 -31 -106 -158q-549 -662 -858 -1202q-41 -88 -93 -187q-66 -111 -155 -110q-47 0 -88 20q-51 29 -51 70z" />
<glyph unicode="0" horiz-adv-x="2043" d="M113 797q0 399 313 688q305 287 707 287q344 0 589 -236q244 -233 244 -580q0 -395 -313 -690q-309 -285 -709 -284q-347 0 -590 233q-241 234 -241 582zM395 862q0 -272 183 -479q188 -211 458 -211q266 0 451 215q178 199 178 475.5t-180 480.5q-188 213 -461 213 q-264 0 -453 -217q-176 -211 -176 -477z" />
<glyph unicode="1" horiz-adv-x="735" d="M72 1413q0 53 73 94q70 37 183 86q135 53 184 54q57 0 57 -52q0 -55 -8 -122q-4 -27 -6 -52.5t-4 -44t-2 -24.5q-8 -121 -8 -332q0 -383 45 -678q8 -41 20 -96q12 -61 12 -99q0 -47 -71 -75q-55 -25 -111 -25q-41 0 -57 41q-29 90 -31 285q-2 98 -2 297q-9 362 -12 669 q-141 -66 -158 -65q-37 0 -72 53q-32 49 -32 86z" />
<glyph unicode="2" horiz-adv-x="1490" d="M131 137q0 27 6 45q8 129 121 160q365 100 580 297q188 176 247 289q16 33 17 82q0 70 -23 149q-49 162 -182 252q-119 78 -258 78q-231 0 -330 -178q-41 -66 -43 -70q-23 -29 -63 -29q-39 0 -39 95q0 117 55 245q53 127 131 191q55 43 152 43q266 0 504 -213 q250 -223 323 -555q8 -33 8 -90q0 -92 -53 -154q-43 -55 -223 -211q-211 -180 -365 -293q438 23 633 23q43 0 43 -49q0 -35 -22 -86q-20 -45 -45 -68q-84 -68 -508 -86q-138 -6 -523 -6q-68 0 -100 22q-43 31 -43 117z" />
<glyph unicode="3" horiz-adv-x="1548" d="M109 152q0 98 65 98q14 0 72 -23q163 -68 338 -67q195 0 362 106q197 123 197 305q0 115 -76 172q-78 59 -193 60q-41 0 -139 -16.5t-141 -16.5q-86 0 -86 78q0 71 67 141q47 47 138 74q94 27 125 49q57 47 57 150q0 98 -76 168q-74 68 -176 67q-84 0 -170 -61 q-41 -27 -129 -113q-65 -61 -92 -61q-49 0 -49 90q0 72 94 190q82 109 188 170q123 74 242 74q154 0 291 -150q135 -147 135 -303q0 -168 -170 -313q211 -66 303 -135q150 -106 150 -279q0 -279 -328 -475q-287 -174 -584 -174q-94 0 -184 18q-119 20 -174 56 q-57 37 -57 121z" />
<glyph unicode="4" d="M123 1374q0 229 164 230q78 0 78 -64q0 -80 -13 -215q-10 -121 -14 -215q-2 -53 -2 -172q0 -76 4 -227q346 106 684 137q-12 424 -12 647q0 74 43 119q43 47 116 47q78 0 78 -57q0 -43 -6 -115l-8 -74t-4 -39q-10 -174 -10 -319q0 -70 4 -197q37 0 67.5 2t67.5 2 q57 0 125 -37q78 -43 78 -92q0 -57 -140 -80l-188 -16q8 -96 35 -242q29 -160 28 -241q0 -43 -63 -74q-51 -25 -100 -25q-57 0 -76 41q-25 61 -27 248q0 178 -2 266q-225 -33 -395 -80q-20 -4 -205 -67q-164 -51 -186 -51q-51 0 -82 43q-33 45 -33 92q0 27 10 51 q-16 450 -16 774z" />
<glyph unicode="5" horiz-adv-x="1366" d="M86 221q0 66 43 66q12 0 76 -23q184 -68 344 -67q174 0 307 82q158 96 158 258q0 132 -111 221q-106 84 -235 84q-45 0 -131 -18.5t-131 -18.5q-100 0 -144 160l-117 458q-12 49 -12 68q0 72 74 111q145 74 373 114q203 41 391 41q76 0 119 -6q57 -10 110 -43 q68 -43 68 -88q0 -59 -133 -74l-349 -45q-190 -29 -340 -84l78 -360q453 -23 621 -236q115 -145 115 -303t-115 -291q-94 -117 -256 -188q-123 -55 -297 -55q-170 0 -309 41q-197 61 -197 196z" />
<glyph unicode="6" horiz-adv-x="1738" d="M109 793q0 199 86 387q82 180 241 319q243 209 651 209q68 0 93 -12q35 -18 57 -80q76 -205 113 -279q4 -12 4 -20q0 -43 -49 -82q-51 -41 -93 -41q-49 0 -98 88l-61 133q-375 -61 -555 -274q-182 -217 -181 -434q621 221 975 221q340 0 340 -226q0 -178 -196 -368 q-158 -158 -357 -244q-172 -72 -325 -72q-291 0 -475 248q-170 230 -170 527zM385 465q115 -182 369 -182q106 0 223 32q125 35 254 109q180 100 180 190q0 76 -178 76q-221 0 -848 -225z" />
<glyph unicode="7" horiz-adv-x="1384" d="M25 1462q0 92 92 129q166 66 643 66q344 0 479 -45q57 -20 115 -84q35 -45 35 -62q0 -12 -19 -43q-352 -588 -508 -1114q-16 -74 -57 -200q-27 -51 -107 -52q-41 0 -86 17q-53 23 -53 61q0 78 543 1274q-152 4 -217 4q-375 0 -584 -47q-145 -31 -168 -31q-49 0 -80 39 q-28 37 -28 88z" />
<glyph unicode="8" horiz-adv-x="1699" d="M106 195q0 158 127 350q104 162 246 291q-100 14 -172 86q-68 68 -67 170q0 178 225 462q193 242 434 242q152 0 289 -149q131 -150 131 -301q0 -172 -168 -314q157 -49 289 -196q141 -160 141 -316q0 -291 -377 -471q-313 -152 -635 -151q-463 0 -463 297zM367 369 q0 -123 174 -187q135 -47 276 -47q175 0 301 62q162 80 162 235q0 145 -94 254q-102 115 -242 115q-162 0 -360 -133q-217 -147 -217 -299zM485 1219q0 -98 103 -148q80 -41 188 -41q129 0 215 53q109 66 109 181q0 113 -62 200q-72 96 -178 97q-119 0 -246 -109 q-129 -113 -129 -233z" />
<glyph unicode="9" horiz-adv-x="1722" d="M119 887q0 213 305 545q119 131 266 206q164 84 326 84q164 0 299 -98q281 -201 280 -442q0 -27 -10 -99q-43 -281 -43 -501q0 -70 16.5 -244t16.5 -246q0 -47 -68 -82q-57 -29 -110 -28q-59 0 -72 59v106q0 119 -14.5 307.5t-14.5 305.5q-332 -199 -723 -199 q-188 0 -307 66q-147 82 -147 260zM381 1036q0 -121 176 -184q129 -49 277 -49q175 0 301 61q162 80 161 236q0 145 -96 254q-98 117 -239 116q-166 0 -363 -135q-217 -147 -217 -299z" />
<glyph unicode=":" horiz-adv-x="673" d="M211 88q0 184 16 266q10 55 138 56q111 0 110 -43q0 -31 -24 -148q-25 -113 -39 -143q-20 -51 -109 -51q-92 0 -92 63zM268 739q0 166 17 269q9 55 135 55q113 0 112 -39q0 -29 -24 -150q-27 -127 -39 -147q-23 -49 -109 -49q-92 0 -92 61z" />
<glyph unicode=";" horiz-adv-x="731" d="M139 -215q0 31 31 96q35 74 94 228q55 152 96 229q33 61 109 61q47 0 92 -26q47 -29 47 -72q0 -27 -121 -268q-104 -205 -151 -281q-33 -53 -82 -53q-45 0 -78 22q-37 25 -37 64zM287 739q0 180 16 269q9 55 135 55q113 0 113 -39q0 -20 -27 -150q-27 -125 -37 -147 q-25 -49 -108 -49q-92 0 -92 61z" />
<glyph unicode="&#x3c;" horiz-adv-x="1546" d="M51 778q0 43 29 105q31 68 74 65q133 117 882 723l187 148q41 29 75 28q41 0 101 -43q57 -43 57 -84q0 -37 -123 -112q-559 -344 -971 -787l850 -575q66 -43 170 -121q55 -47 56 -100q0 -35 -27 -93q-31 -59 -68 -59q-23 0 -120 82q-524 449 -951 659q-37 18 -71.5 33 t-63.5 29q-86 43 -86 102z" />
<glyph unicode="=" horiz-adv-x="1546" d="M125 1073q0 49 45 64q25 8 184 12q127 4 203 4q176 12 422 90q180 55 190 55q49 0 86 -65q31 -55 31 -109q0 -35 -35 -57q-47 -29 -475 -94q-428 -63 -512 -64q-59 0 -98 52q-41 53 -41 112zM233 633q0 63 89 72q45 2 135 2q250 8 401 34q27 6 229 66q166 53 193 53 q49 0 86 -67q33 -61 33 -109q0 -33 -35 -55q-59 -31 -479 -94.5t-510 -63.5q-55 0 -98.5 53.5t-43.5 108.5z" />
<glyph unicode="&#x3e;" horiz-adv-x="1572" d="M92 1720q0 49 51 86q49 35 103 35q37 0 78 -22q45 -25 96 -70l92 -78l879 -723q41 2 75 -65q29 -51 29 -103q0 -58 -86 -104q-25 -12 -47.5 -21.5t-39.5 -17.5l-48 -23q-403 -207 -825 -553l-125 -108q-100 -82 -125 -82q-35 0 -66 61q-25 55 -24 95q0 51 53 98 q6 8 172 121l850 575q-383 401 -869 723q-84 47 -202 133q-21 18 -21 43z" />
<glyph unicode="?" horiz-adv-x="1626" d="M143 1516q0 90 58 147q119 113 319 182q199 68 365 68q242 0 452 -133q233 -150 234 -383q0 -139 -119 -258q-266 -262 -942 -305q-16 -84 -29 -113q-27 -43 -102 -43q-100 0 -100 49q0 281 36 305q8 8 222 8q436 0 583 129q115 102 115 201q0 145 -184 242 q-152 78 -318 78q-119 0 -246 -64q-70 -33 -198 -115q-90 -63 -111 -63q-35 0 -35 68zM199 170q0 115 16 186q10 55 141 56q106 0 107 -33q0 -12 -27 -115q-23 -88 -35 -112q-23 -41 -108 -41q-94 0 -94 59z" />
<glyph unicode="@" horiz-adv-x="2039" d="M115 684q0 258 147 516q150 254 379 412q242 168 506 168q317 0 539 -226q223 -227 223 -544q0 -256 -148 -512q-150 -258 -381 -414q-250 -166 -508 -166q-322 0 -538 223q-219 226 -219 543zM367 791q0 -260 143 -455q160 -221 405 -221q164 0 334 100q389 229 389 666 q0 258 -145 454q-158 219 -408 219q-164 0 -333 -100q-385 -225 -385 -663zM596 524q0 141 131 324q132 184 356 184q61 0 148 -16q-18 133 -144 133q-47 0 -149 -22.5t-147 -22.5q-53 0 -90 30.5t-37 84.5q0 61 184 92q119 23 244 22q154 0 194 -33q68 -49 90 -210l19 -244 q6 -83 6 -117q0 -207 -148 -323q-133 -109 -348 -109q-127 0 -209 51q-100 61 -100 176zM752 612q0 -59 73 -96q61 -31 129 -31q94 0 174 52q88 57 89 149q0 61 -46 115q-45 55 -100 55q-72 0 -192 -86q-127 -90 -127 -158z" />
<glyph unicode="A" d="M25 160q0 37 53 116q29 49 76 117q143 248 284 608l234 629q39 106 157 107q55 0 86 -56q35 -72 54 -131l45 -137q212 -568 454 -977l37 -58.5l37 -58.5q53 -86 53 -116q0 -51 -55 -97q-57 -47 -108 -47q-53 0 -109 111l-66 160q-385 -92 -948 -197q-70 -168 -125 -168 q-57 0 -108 68q-51 66 -51 127zM428 406q391 61 719 182l-334 784q-72 -161 -385 -966z" />
<glyph unicode="B" horiz-adv-x="1648" d="M78 1141q0 106 153 272q133 143 252 211q170 100 385 100q242 0 402 -125q168 -135 168 -374q0 -244 -320 -434q152 -43 264 -138q141 -117 142 -247q0 -207 -361 -328q-221 -74 -674 -74q-90 0 -139 4q-90 12 -119 60q-33 51 -47 931q-6 -2 -16 -2q-45 0 -70 54 q-20 41 -20 90zM389 989q0 -123 2 -188q578 16 737 182q111 111 111 219q0 131 -143 205q-117 61 -258 61q-219 0 -445 -229q-4 -164 -4 -250zM408 494q10 -98 28 -238q242 -16 387 -16q319 0 412 59q88 51 88 102q0 102 -223 166q-178 51 -312 51q-208 1 -380 -124z" />
<glyph unicode="C" horiz-adv-x="1609" d="M74 592q0 481 375 813q358 322 845 321q92 0 115 -34q12 -20 12 -121q0 -33 22.5 -106.5t22.5 -104.5q0 -51 -63 -100q-61 -47 -117 -48q-41 0 -69 93l-29 129q-463 -70 -705 -347q-215 -246 -215 -469q0 -156 129 -253q115 -88 279 -89q143 0 352 84q129 51 318 156 q156 84 172 84q47 0 47 -102q0 -41 -60 -90l-48 -33l-48 -33q-471 -330 -823 -330q-242 0 -383 172q-129 156 -129 408z" />
<glyph unicode="D" horiz-adv-x="1710" d="M109 1167.5q0 61.5 41 116.5q43 49 88 92q350 338 739 338q287 0 485 -205q201 -207 201 -491q0 -375 -371 -643q-297 -217 -719 -299q-113 -18 -219 -41l-116 -29q-35 0 -54 37q-16 35 -39 1016q-36 47 -36 108.5zM346 944q0 -352 51 -668q379 37 639 170 q358 184 359 504q0 213 -158 361q-156 147 -369 147q-266 0 -514 -233q-8 -125 -8 -281z" />
<glyph unicode="E" horiz-adv-x="1538" d="M61 829q0 90 76 121h2q-12 162 -12 430q0 100 2 105q8 57 49 88q18 16 103 41l91 27.5t76.5 24.5l90.5 30q154 41 268 41h84q19 1 37 0q74 0 114 -8q76 -16 127 -76q53 -63 54 -111q0 -68 -123 -78q-291 -25 -381 -41q-172 -33 -367 -116q-10 -154 -10 -293 q469 139 858 139q88 0 117 -6q45 -6 110 -45q68 -45 68 -90q0 -53 -135 -70q-670 -78 -1012 -192q10 -264 45 -492q199 0 432 47l428 94q33 8 62 9q82 0 82 -70q0 -45 -31 -94t-72 -72q-166 -94 -458 -149q-250 -43 -488 -43q-121 0 -162 65q-27 45 -41 657q-84 31 -84 127z " />
<glyph unicode="F" horiz-adv-x="1419" d="M49 829q0 98 78 117q-12 328 -12 422q0 100 2 109q10 61 49 90q18 16 102 41q285 86 297 90q152 33 314 33q117 0 151 -9q74 -14 127 -75q53 -59 53 -109q0 -70 -125 -80q-281 -23 -378 -41q-176 -33 -369 -117q-8 -131 -8 -286q436 133 786 133q68 0 105 -6 q47 -8 106 -49t59 -86q0 -14 -8 -29q-23 -33 -116 -41q-578 -66 -928 -186q2 -102 31 -318q18 -113 26 -156q14 -88 15 -157q0 -51 -60 -84q-53 -27 -104 -27q-59 0 -78 41q-18 43 -31 647q-84 22 -84 133z" />
<glyph unicode="G" horiz-adv-x="1828" d="M57 596q0 473 377 803q356 317 842 317q88 0 113 -30q14 -16 14 -115q0 -49 22 -119q25 -77 25 -117q0 -41 -68 -88q-66 -45 -112 -45q-39 0 -70 94l-31 129q-412 -66 -647 -290q-113 -109 -186 -240q-86 -150 -86 -285q0 -154 110.5 -246t264.5 -92q184 0 442 101 q260 100 383 227q49 52 49 80q0 74 -178 74q-170 0 -563 -78l-129 -31q-72 -18 -131.5 -18t-59.5 59q0 53 51 117q43 59 97 84q77 43 319 67q203 23 332 23q498 0 498 -201q0 -158 -271 -377q-492 -399 -882 -399q-254 0 -396 174q-129 160 -129 422z" />
<glyph unicode="H" horiz-adv-x="1558" d="M150 1475q0 70 57 120q52 43 129 43q90 0 90 -69q0 -4 -12 -174q-14 -184 -15 -414q360 119 748 141l-4 355q0 158 49 200q57 49 158 49q39 0 58 -15t17 -44v-2l-2 -10l-2 -35l-16 -135q-14 -168 -25 -361q49 -12 99 -47q59 -41 59 -84q0 -72 -162 -71q0 -348 25 -539 q0 -2 1 -7t2 -12.5t4 -27t9 -47.5q10 -61 10 -96q0 -47 -55 -78t-104 -31q-68 0 -82 47q-16 53 -17 156q1 -78 1.5 -78t0.5 242q0 100 -8 221l-4 103t-4 81t-2 39q-412 -55 -747 -180q16 -274 38 -420q31 -180 31 -201q0 -41 -63 -71q-59 -27 -103 -27q-57 0 -73 41 q-10 31 -15 108q0 76 -2 115l-20.5 301.5t-22.5 304.5q-26 394 -26 609z" />
<glyph unicode="I" horiz-adv-x="1245" d="M98 1460q0 106 74 150q250 143 627 143q143 0 207 -20q111 -31 147 -131q8 -18 8 -48q0 -27 -8 -36q-20 -33 -115 -39q-287 -23 -356 -29q-18 -233 -18 -451q0 -377 55 -725q25 4 186 54q125 33 191 32q59 0 59 -49q0 -41 -28.5 -86t-63.5 -67q-115 -70 -371 -121 q-218 -43 -393 -43q-92 0 -137 22q-59 29 -60 117q0 106 136 107q35 0 61 -2q53 -4 55 -5q76 0 138 7q-25 346 -35 1149q-221 -98 -256 -99q-49 0 -80 64q-23 51 -23 106z" />
<glyph unicode="J" horiz-adv-x="1775" d="M121 848q0 113 125 113q71 0 92 -130q49 -289 182 -405q160 -145 369 -145q170 0 301 90q137 94 174 256q27 127 27 309q0 427 -62 516q-27 33 -94 33q-61 0 -209 -33q-137 -31 -186 -31q-45 0 -45 60q0 147 102 190q143 59 453 60q166 0 219 -43q39 -31 55 -99 q29 -119 29 -329q0 -373 -101 -693q-74 -242 -264 -389t-440 -147q-313 0 -526 256q-201 239 -201 561z" />
<glyph unicode="K" horiz-adv-x="1570" d="M152 1446q0 98 2 108q12 63 67 97q57 35 123 35q88 0 88 -58q0 -45 -10 -131l-8 -64.5t-6 -46t-2 -18.5q-23 -213 -23 -508l2 -4l4 -2q791 745 901 776q41 10 76 10q125 0 125 -69q0 -29 -88 -105l-430 -399l-395 -377q348 -266 716 -426l95 -37q70 -31 69 -53 q0 -41 -86 -78q-78 -33 -123 -33q-41 0 -446 142q-238 84 -402 213q33 -252 33 -264q0 -51 -55 -84q-53 -27 -103 -27q-59 0 -79 43q-16 29 -31 643q-14 504 -14 717z" />
<glyph unicode="L" horiz-adv-x="1402" d="M123 1395q0 145 16 186q31 90 150 90q78 0 78 -55l-17 -217q-14 -184 -14 -381q0 -403 53 -705q199 0 395 33q63 10 273 66q211 51 252 51q84 0 84 -72q0 -102 -103 -164q-133 -82 -436 -143q-273 -55 -461 -55q-174 0 -211 71q-25 47 -43 617q-16 410 -16 678z" />
<glyph unicode="M" horiz-adv-x="1951" d="M33 170q0 35 35 106l49 107q102 240 200 588l160 596q31 106 111 106q45 0 76 -100l32 -139q92 -379 301 -914q131 375 232 787l92 383q31 106 109 106q51 0 88 -139l38 -187q152 -635 302 -1011q92 -233 92 -244q0 -49 -53.5 -108.5t-102.5 -59.5q-27 0 -41 21 q-27 33 -170 528l-174 604l-182 -639q-147 -526 -172 -555q-27 -37 -56 -37q-49 0 -92 78q-37 71 -37 135q0 16 2 23l-288 930l-305 -963q-14 -51 -60 -166q-27 -39 -49 -39q-46 0 -92 80q-45 70 -45 123z" />
<glyph unicode="N" horiz-adv-x="1667" d="M109 1280q0 176 16 219q37 94 184 94q51 0 76 -26l883 -1026l24 542q8 178 11 277q10 193 24 274q14 121 174 121q72 0 72 -78q0 -16 -19 -114q-80 -420 -79 -908q0 -168 10 -307q0 -2 3 -29.5t7 -52.5q8 -43 8 -82q0 -131 -174 -131q-37 0 -54.5 10.5t-14.5 32.5 l-906 1024q-12 -195 -12 -370q0 -309 29 -527q0 -2 2 -13l5 -28.5t7 -38.5q10 -55 10 -82q0 -49 -59 -79q-49 -29 -103 -29q-66 0 -79 47q-8 23 -27 621q-18 553 -18 659z" />
<glyph unicode="O" horiz-adv-x="2023" d="M90 797q0 399 313 688q305 287 707 287q346 0 592 -236q242 -233 242 -580q0 -395 -314 -690q-313 -285 -708 -284q-347 0 -590 233q-242 234 -242 582zM373 862q0 -276 182 -479q188 -211 459 -211q266 0 450 215q178 203 178 475q0 276 -180 481q-188 213 -461 213 q-264 0 -452 -217q-176 -211 -176 -477z" />
<glyph unicode="P" horiz-adv-x="1507" d="M84 1161q0 104 192 287q305 281 627 281q227 0 397 -148q180 -154 181 -377q0 -342 -416 -551q-287 -147 -717 -207q2 -16 29 -172q20 -100 20 -172q0 -45 -61 -77q-53 -29 -102.5 -29t-73.5 33q-27 35 -41 1018q-35 46 -35 114zM322 979q0 -168 8 -301q599 18 774 209 q119 135 119 256q0 141 -154 237q-137 84 -287 84q-223 0 -454 -231q-6 -123 -6 -254z" />
<glyph unicode="Q" horiz-adv-x="1982" d="M59 793q0 399 307.5 687.5t708.5 288.5q346 0 590 -231t244 -575q0 -373 -283 -666q102 -43 113 -49q78 -43 78 -78q0 -25 -39 -51q-37 -25 -68 -25q-41 0 -233 78q-261 -184 -584 -184q-358 0 -596 225.5t-238 579.5zM338 862.5q0 -276.5 178 -477.5q188 -209 459 -209 q156 0 301 84q-190 92 -334 207q-197 163 -197 313q0 41 23 99q25 68 61 67q18 0 50 -31l272 -268q162 -154 297 -239q164 199 164 452q0 266 -176 477q-188 217 -451 217q-272 0 -465 -211q-182 -204 -182 -480.5z" />
<glyph unicode="R" horiz-adv-x="1552" d="M80 1174q0 51 53 116q344 432 768 432q240 0 422 -139q195 -152 195 -387q0 -283 -299 -477q-223 -145 -557 -219q293 -168 505 -221q12 -2 72 -17q45 -18 45 -51q0 -35 -37 -64q-39 -29 -71 -28q-139 0 -379 76q-227 68 -367 141q4 -45 21 -117q16 -78 16 -119 q0 -43 -57 -75q-46 -25 -99 -25q-61 0 -84 41q-25 51 -41 989q-43 9 -73 55q-33 50 -33 89zM389 987q0 -168 8 -301q586 14 762 207q119 135 119 260q0 141 -148 238q-127 82 -282 82q-221 0 -453 -232q-6 -127 -6 -254z" />
<glyph unicode="S" horiz-adv-x="1800" d="M111 481q0 94 51 94t92 -59l29.5 -48.5t33.5 -49.5q133 -178 451 -178q193 0 352 77q181 89 246 252q23 57 23 95q0 57 -66 81q-160 59 -502 82q-174 6 -522 23q-94 8 -129 47q-37 41 -37 133q0 106 176 307q381 432 955 432q66 0 94 -16q27 -14 33 -74q4 -41 22 -114 q16 -78 17 -117q0 -43 -70 -88t-117 -45q-43 0 -86 164q-23 2 -67 2q-378 0 -603 -289q-39 -47 -38 -68q0 -22 161 -21q34 0 74 1h-4q184 0 491 -25q375 -31 465 -65q72 -25 72 -154q0 -53 -12 -90q-102 -336 -441 -555q-322 -213 -684 -213q-137 0 -206 43 q-101 61 -179 191q-75 126 -75 245z" />
<glyph unicode="T" horiz-adv-x="1271" d="M8 1440q0 106 88 149q305 143 778 144q147 0 222 -21q123 -35 170 -131q12 -25 12 -45q0 -25 -12 -39q-25 -33 -138 -39q-166 -6 -407 -26q-16 -258 -16 -461q0 -377 49 -680q29 -178 28 -185q0 -41 -63 -71q-59 -27 -103 -27q-53 0 -73 41q-29 72 -45 1337l-187 -67 q-135 -49 -176 -49q-57 0 -94 57q-33 54 -33 113z" />
<glyph unicode="U" horiz-adv-x="1587" d="M131 1389q0 156 25 210q41 86 180 87q82 0 82 -58l-25 -215q-27 -233 -26 -690q0 -336 32 -367q14 -10 39 -10q88 0 373 113q207 84 373 168q-23 489 -23 770q0 143 25 198q39 92 168 93q94 0 94 -60q0 -47 -10 -139q-16 -125 -19 -139q-23 -217 -22 -541q0 -229 28 -442 q25 -195 25 -213q0 -51 -53 -80q-55 -31 -109 -31q-61 0 -80 45q-6 16 -12 268q-168 -96 -455 -198q-313 -111 -465 -111q-109 0 -108 119q0 25 2 49q4 33 0 51v25q-4 211 -23 549q-16 371 -16 549z" />
<glyph unicode="V" horiz-adv-x="1282" d="M35 1597q0 100 145 101q66 0 94 -115l12.5 -84t14.5 -86q89 -488 295 -995l184 522l99 289q63 182 114 276q49 88 152 88q37 0 67 -12q45 -20 45 -49q0 -25 -51 -125q-43 -88 -67 -133q-207 -436 -310 -959q-6 -90 -41 -221q-25 -61 -147 -61q-119 0 -158 63 q-31 49 -239 746q-209 697 -209 755z" />
<glyph unicode="W" horiz-adv-x="1994" d="M41 1507q0 51 53 110.5t105 59.5q25 0 39 -20q37 -49 159 -512q57 -221 185 -623q82 283 288 824q76 203 164 202q39 0 64 -61q10 -27 28 -96q12 -43 123 -344q86 -227 158 -457l317 995q16 61 48 133q20 39 49 39q49 0 94 -82q45 -72 45 -123q0 -16 -86 -217 q-104 -246 -203 -583l-158 -596q-31 -106 -108 -107q-35 0 -59 57q-10 20 -82 277q-49 164 -123 350l-140 344q-190 -535 -331 -1044q-28 -104 -111 -105q-35 0 -57 54q-14 37 -37 135l-31 135q-172 682 -307 1028q-86 221 -86 227z" />
<glyph unicode="X" horiz-adv-x="1449" d="M90 1579q0 49 29 102q33 61 82 62q23 0 49 -27q33 -33 69 -100l62 -109q151 -240 319 -460l181 317q104 178 198 307q43 59 119 60q59 0 109 -31q61 -33 61 -88q0 -14 -10 -35q0 -4 -94 -125q-200 -261 -412 -602l141 -176q74 -88 152 -166q70 -63 151 -152 q18 -25 19 -59q0 -49 -35 -115q-39 -70 -88 -69q-16 0 -33 12q-47 35 -108 119l-97 131l-219 280q-139 -238 -225 -419q-27 -72 -86 -187q-29 -47 -96 -47q-49 0 -97 25q-55 31 -55 75q0 33 412 748l-246 305q-137 172 -223 322q-29 51 -29 102z" />
<glyph unicode="Y" horiz-adv-x="1501" d="M41 1528q0 43 39 106q41 66 80 66q20 0 45 -31q9 -12 92 -147q203 -335 461 -658q43 78 340 576q37 72 145 235q47 59 121 60q57 0 109 -31q61 -37 61 -88q0 -27 -92 -150l-119 -155q-381 -516 -623 -1024l-75 -178q-55 -102 -144 -103q-41 0 -88 27q-51 33 -51 73 q0 12 303 562l-280 370q-137 174 -291 392q-33 51 -33 98z" />
<glyph unicode="Z" horiz-adv-x="1574" d="M74 195q0 31 20 69q25 43 66 94q72 84 76 88l784 984q-35 2 -100 2q-295 0 -596 -68q-29 -4 -39 -4q-59 0 -96 41t-37 102q0 29 12 60q31 82 301 125q197 27 350 26q182 0 350 -33q258 -51 258 -174q0 -43 -39 -94q-25 -33 -94 -100q-25 -25 -49 -46.5l-36.5 -32.5 t-14.5 -13q-453 -459 -782 -951q90 -8 213 -8q217 0 749 53q57 4 66 4q104 0 104 -63q0 -45 -41 -82q-37 -35 -86 -55q-266 -92 -827 -92q-225 0 -303 10q-209 33 -209 158z" />
<glyph unicode="[" horiz-adv-x="1157" d="M102 1397q0 449 33 516q33 70 105 69q90 0 163 3h164q399 0 441 -23q33 -20 32.5 -71.5t-18.5 -102.5q-25 -66 -66 -66q-55 0 -178 31t-194 31q-66 0 -207 -17q-39 -483 -39 -856q0 -129 27 -465q25 -311 24 -464q123 -12 192.5 -12.5t196.5 28.5t178 29q41 0 66 -64 q18 -49 18 -96q0 -55 -32 -78q-37 -23 -441 -22h-161q-74 2 -162 2q-51 0 -82 57q-25 49 -25 104q0 33 8 52q-43 1005 -43 1415z" />
<glyph unicode="\" horiz-adv-x="1447" d="M61 1655q0 45 58 78q49 25 100 24q78 0 139 -63q39 -39 91 -119l81 -127l717 -1090q74 -115 94 -141q74 -111 74 -137q0 -37 -59 -64q-47 -20 -88 -20q-72 0 -109 51q-33 39 -65 109l-58 114q-330 578 -870 1223l-66 76q-39 55 -39 86z" />
<glyph unicode="]" horiz-adv-x="1214" d="M133 -131q0 47 19 96q25 61 63 62q51 0 178 -29t199 -29q74 0 190 13q0 154 24.5 458.5t24.5 458.5q0 403 -36 868q-137 16 -207 17q-76 0 -195 -31t-178 -31q-39 0 -63 64q-18 45 -19 96q0 59 35 82q33 20 440 21h162q72 -2 162 -3q72 0 106 -69q33 -66 33 -461 q0 -350 -29 -969q-16 -436 -16 -489q0 -25 2 -43.5t2 -42.5q0 -45 -24 -88q-31 -51 -74 -51h-156q-72 -2 -158 -2q-424 0 -452 20q-33 23 -33 82z" />
<glyph unicode="^" horiz-adv-x="897" d="M68 1442q0 16 34 61q168 197 234 344q29 70 74 70q16 0 49 -16q29 -14 37 -35l243 -299q68 -86 68 -111q0 -20 -23 -53q-23 -31 -51 -31q-33 0 -65 58q-106 176 -238 301l-199 -291q-43 -61 -79 -62q-23 0 -53.5 18.5t-30.5 45.5z" />
<glyph unicode="_" horiz-adv-x="1665" d="M84 -63q0 66 67.5 65.5t366.5 -27.5q205 -20 400 -20q123 0 382 31q157 18 173 18q59 0 98 -51t39 -115q0 -59 -58 -74q-27 -6 -149 -8q-203 -8 -399 -8h-259q-334 0 -491 14q-170 17 -170 175z" />
<glyph unicode="`" horiz-adv-x="790" d="M86 1763q10 51 43 84q39 45 80 37q28 -6 240 -172q199 -154 247 -203q45 -45 37 -88q-8 -41 -37 -69q-31 -35 -69 -27q-33 6 -86 47q-66 49 -209 133q-129 78 -205 140q-55 46 -41 118z" />
<glyph unicode="a" d="M25 160q0 37 53 116q29 49 76 117q143 248 284 608l234 629q39 106 157 107q55 0 86 -56q35 -72 54 -131l45 -137q212 -568 454 -977l37 -58.5l37 -58.5q53 -86 53 -116q0 -51 -55 -97q-57 -47 -108 -47q-53 0 -109 111l-66 160q-385 -92 -948 -197q-70 -168 -125 -168 q-57 0 -108 68q-51 66 -51 127zM428 406q391 61 719 182l-334 784q-72 -161 -385 -966z" />
<glyph unicode="b" horiz-adv-x="1648" d="M78 1141q0 106 153 272q133 143 252 211q170 100 385 100q242 0 402 -125q168 -135 168 -374q0 -244 -320 -434q152 -43 264 -138q141 -117 142 -247q0 -207 -361 -328q-221 -74 -674 -74q-90 0 -139 4q-90 12 -119 60q-33 51 -47 931q-6 -2 -16 -2q-45 0 -70 54 q-20 41 -20 90zM389 989q0 -123 2 -188q578 16 737 182q111 111 111 219q0 131 -143 205q-117 61 -258 61q-219 0 -445 -229q-4 -164 -4 -250zM408 494q10 -98 28 -238q242 -16 387 -16q319 0 412 59q88 51 88 102q0 102 -223 166q-178 51 -312 51q-208 1 -380 -124z" />
<glyph unicode="c" horiz-adv-x="1609" d="M74 592q0 481 375 813q358 322 845 321q92 0 115 -34q12 -20 12 -121q0 -33 22.5 -106.5t22.5 -104.5q0 -51 -63 -100q-61 -47 -117 -48q-41 0 -69 93l-29 129q-463 -70 -705 -347q-215 -246 -215 -469q0 -156 129 -253q115 -88 279 -89q143 0 352 84q129 51 318 156 q156 84 172 84q47 0 47 -102q0 -41 -60 -90l-48 -33l-48 -33q-471 -330 -823 -330q-242 0 -383 172q-129 156 -129 408z" />
<glyph unicode="d" horiz-adv-x="1710" d="M109 1167.5q0 61.5 41 116.5q43 49 88 92q350 338 739 338q287 0 485 -205q201 -207 201 -491q0 -375 -371 -643q-297 -217 -719 -299q-113 -18 -219 -41l-116 -29q-35 0 -54 37q-16 35 -39 1016q-36 47 -36 108.5zM346 944q0 -352 51 -668q379 37 639 170 q358 184 359 504q0 213 -158 361q-156 147 -369 147q-266 0 -514 -233q-8 -125 -8 -281z" />
<glyph unicode="e" horiz-adv-x="1538" d="M61 829q0 90 76 121h2q-12 162 -12 430q0 100 2 105q8 57 49 88q18 16 103 41l91 27.5t76.5 24.5l90.5 30q154 41 268 41h84q19 1 37 0q74 0 114 -8q76 -16 127 -76q53 -63 54 -111q0 -68 -123 -78q-291 -25 -381 -41q-172 -33 -367 -116q-10 -154 -10 -293 q469 139 858 139q88 0 117 -6q45 -6 110 -45q68 -45 68 -90q0 -53 -135 -70q-670 -78 -1012 -192q10 -264 45 -492q199 0 432 47l428 94q33 8 62 9q82 0 82 -70q0 -45 -31 -94t-72 -72q-166 -94 -458 -149q-250 -43 -488 -43q-121 0 -162 65q-27 45 -41 657q-84 31 -84 127z " />
<glyph unicode="f" horiz-adv-x="1419" d="M49 829q0 98 78 117q-12 328 -12 422q0 100 2 109q10 61 49 90q18 16 102 41q285 86 297 90q152 33 314 33q117 0 151 -9q74 -14 127 -75q53 -59 53 -109q0 -70 -125 -80q-281 -23 -378 -41q-176 -33 -369 -117q-8 -131 -8 -286q436 133 786 133q68 0 105 -6 q47 -8 106 -49t59 -86q0 -14 -8 -29q-23 -33 -116 -41q-578 -66 -928 -186q2 -102 31 -318q18 -113 26 -156q14 -88 15 -157q0 -51 -60 -84q-53 -27 -104 -27q-59 0 -78 41q-18 43 -31 647q-84 22 -84 133z" />
<glyph unicode="g" horiz-adv-x="1828" d="M57 596q0 473 377 803q356 317 842 317q88 0 113 -30q14 -16 14 -115q0 -49 22 -119q25 -77 25 -117q0 -41 -68 -88q-66 -45 -112 -45q-39 0 -70 94l-31 129q-412 -66 -647 -290q-113 -109 -186 -240q-86 -150 -86 -285q0 -154 110.5 -246t264.5 -92q184 0 442 101 q260 100 383 227q49 52 49 80q0 74 -178 74q-170 0 -563 -78l-129 -31q-72 -18 -131.5 -18t-59.5 59q0 53 51 117q43 59 97 84q77 43 319 67q203 23 332 23q498 0 498 -201q0 -158 -271 -377q-492 -399 -882 -399q-254 0 -396 174q-129 160 -129 422z" />
<glyph unicode="h" horiz-adv-x="1558" d="M150 1475q0 70 57 120q52 43 129 43q90 0 90 -69q0 -4 -12 -174q-14 -184 -15 -414q360 119 748 141l-4 355q0 158 49 200q57 49 158 49q39 0 58 -15t17 -44v-2l-2 -10l-2 -35l-16 -135q-14 -168 -25 -361q49 -12 99 -47q59 -41 59 -84q0 -72 -162 -71q0 -348 25 -539 q0 -2 1 -7t2 -12.5t4 -27t9 -47.5q10 -61 10 -96q0 -47 -55 -78t-104 -31q-68 0 -82 47q-16 53 -17 156q1 -78 1.5 -78t0.5 242q0 100 -8 221l-4 103t-4 81t-2 39q-412 -55 -747 -180q16 -274 38 -420q31 -180 31 -201q0 -41 -63 -71q-59 -27 -103 -27q-57 0 -73 41 q-10 31 -15 108q0 76 -2 115l-20.5 301.5t-22.5 304.5q-26 394 -26 609z" />
<glyph unicode="i" horiz-adv-x="593" d="M162 1507q0 176 200 176q80 0 80 -55q0 -47 -10 -139l-18 -139q-23 -248 -23 -480q0 -289 27 -528l16 -100q10 -68 10 -101q0 -43 -61 -73q-51 -25 -102 -25q-88 0 -88 133v49q2 20 2 45l-2 35q-4 158 -19 602q-12 375 -12 600z" />
<glyph unicode="j" horiz-adv-x="1775" d="M121 848q0 113 125 113q71 0 92 -130q49 -289 182 -405q160 -145 369 -145q170 0 301 90q137 94 174 256q27 127 27 309q0 427 -62 516q-27 33 -94 33q-61 0 -209 -33q-137 -31 -186 -31q-45 0 -45 60q0 147 102 190q143 59 453 60q166 0 219 -43q39 -31 55 -99 q29 -119 29 -329q0 -373 -101 -693q-74 -242 -264 -389t-440 -147q-313 0 -526 256q-201 239 -201 561z" />
<glyph unicode="k" horiz-adv-x="1570" d="M152 1446q0 98 2 108q12 63 67 97q57 35 123 35q88 0 88 -58q0 -45 -10 -131l-8 -64.5t-6 -46t-2 -18.5q-23 -213 -23 -508l2 -4l4 -2q791 745 901 776q41 10 76 10q125 0 125 -69q0 -29 -88 -105l-430 -399l-395 -377q348 -266 716 -426l95 -37q70 -31 69 -53 q0 -41 -86 -78q-78 -33 -123 -33q-41 0 -446 142q-238 84 -402 213q33 -252 33 -264q0 -51 -55 -84q-53 -27 -103 -27q-59 0 -79 43q-16 29 -31 643q-14 504 -14 717z" />
<glyph unicode="l" horiz-adv-x="1402" d="M123 1395q0 145 16 186q31 90 150 90q78 0 78 -55l-17 -217q-14 -184 -14 -381q0 -403 53 -705q199 0 395 33q63 10 273 66q211 51 252 51q84 0 84 -72q0 -102 -103 -164q-133 -82 -436 -143q-273 -55 -461 -55q-174 0 -211 71q-25 47 -43 617q-16 410 -16 678z" />
<glyph unicode="m" horiz-adv-x="1951" d="M33 170q0 35 35 106l49 107q102 240 200 588l160 596q31 106 111 106q45 0 76 -100l32 -139q92 -379 301 -914q131 375 232 787l92 383q31 106 109 106q51 0 88 -139l38 -187q152 -635 302 -1011q92 -233 92 -244q0 -49 -53.5 -108.5t-102.5 -59.5q-27 0 -41 21 q-27 33 -170 528l-174 604l-182 -639q-147 -526 -172 -555q-27 -37 -56 -37q-49 0 -92 78q-37 71 -37 135q0 16 2 23l-288 930l-305 -963q-14 -51 -60 -166q-27 -39 -49 -39q-46 0 -92 80q-45 70 -45 123z" />
<glyph unicode="n" horiz-adv-x="1667" d="M109 1280q0 176 16 219q37 94 184 94q51 0 76 -26l883 -1026l24 542q8 178 11 277q10 193 24 274q14 121 174 121q72 0 72 -78q0 -16 -19 -114q-80 -420 -79 -908q0 -168 10 -307q0 -2 3 -29.5t7 -52.5q8 -43 8 -82q0 -131 -174 -131q-37 0 -54.5 10.5t-14.5 32.5 l-906 1024q-12 -195 -12 -370q0 -309 29 -527q0 -2 2 -13l5 -28.5t7 -38.5q10 -55 10 -82q0 -49 -59 -79q-49 -29 -103 -29q-66 0 -79 47q-8 23 -27 621q-18 553 -18 659z" />
<glyph unicode="o" horiz-adv-x="2023" d="M90 797q0 399 313 688q305 287 707 287q346 0 592 -236q242 -233 242 -580q0 -395 -314 -690q-313 -285 -708 -284q-347 0 -590 233q-242 234 -242 582zM373 862q0 -276 182 -479q188 -211 459 -211q266 0 450 215q178 203 178 475q0 276 -180 481q-188 213 -461 213 q-264 0 -452 -217q-176 -211 -176 -477z" />
<glyph unicode="p" horiz-adv-x="1507" d="M84 1161q0 104 192 287q305 281 627 281q227 0 397 -148q180 -154 181 -377q0 -342 -416 -551q-287 -147 -717 -207q2 -16 29 -172q20 -100 20 -172q0 -45 -61 -77q-53 -29 -102.5 -29t-73.5 33q-27 35 -41 1018q-35 46 -35 114zM322 979q0 -168 8 -301q599 18 774 209 q119 135 119 256q0 141 -154 237q-137 84 -287 84q-223 0 -454 -231q-6 -123 -6 -254z" />
<glyph unicode="q" horiz-adv-x="1982" d="M59 793q0 399 307.5 687.5t708.5 288.5q346 0 590 -231t244 -575q0 -373 -283 -666q102 -43 113 -49q78 -43 78 -78q0 -25 -39 -51q-37 -25 -68 -25q-41 0 -233 78q-261 -184 -584 -184q-358 0 -596 225.5t-238 579.5zM338 862.5q0 -276.5 178 -477.5q188 -209 459 -209 q156 0 301 84q-190 92 -334 207q-197 163 -197 313q0 41 23 99q25 68 61 67q18 0 50 -31l272 -268q162 -154 297 -239q164 199 164 452q0 266 -176 477q-188 217 -451 217q-272 0 -465 -211q-182 -204 -182 -480.5z" />
<glyph unicode="r" horiz-adv-x="1552" d="M80 1174q0 51 53 116q344 432 768 432q240 0 422 -139q195 -152 195 -387q0 -283 -299 -477q-223 -145 -557 -219q293 -168 505 -221q12 -2 72 -17q45 -18 45 -51q0 -35 -37 -64q-39 -29 -71 -28q-139 0 -379 76q-227 68 -367 141q4 -45 21 -117q16 -78 16 -119 q0 -43 -57 -75q-46 -25 -99 -25q-61 0 -84 41q-25 51 -41 989q-43 9 -73 55q-33 50 -33 89zM389 987q0 -168 8 -301q586 14 762 207q119 135 119 260q0 141 -148 238q-127 82 -282 82q-221 0 -453 -232q-6 -127 -6 -254z" />
<glyph unicode="s" horiz-adv-x="1800" d="M111 481q0 94 51 94t92 -59l29.5 -48.5t33.5 -49.5q133 -178 451 -178q193 0 352 77q181 89 246 252q23 57 23 95q0 57 -66 81q-160 59 -502 82q-174 6 -522 23q-94 8 -129 47q-37 41 -37 133q0 106 176 307q381 432 955 432q66 0 94 -16q27 -14 33 -74q4 -41 22 -114 q16 -78 17 -117q0 -43 -70 -88t-117 -45q-43 0 -86 164q-23 2 -67 2q-378 0 -603 -289q-39 -47 -38 -68q0 -22 161 -21q34 0 74 1h-4q184 0 491 -25q375 -31 465 -65q72 -25 72 -154q0 -53 -12 -90q-102 -336 -441 -555q-322 -213 -684 -213q-137 0 -206 43 q-101 61 -179 191q-75 126 -75 245z" />
<glyph unicode="t" horiz-adv-x="1271" d="M8 1440q0 106 88 149q305 143 778 144q147 0 222 -21q123 -35 170 -131q12 -25 12 -45q0 -25 -12 -39q-25 -33 -138 -39q-166 -6 -407 -26q-16 -258 -16 -461q0 -377 49 -680q29 -178 28 -185q0 -41 -63 -71q-59 -27 -103 -27q-53 0 -73 41q-29 72 -45 1337l-187 -67 q-135 -49 -176 -49q-57 0 -94 57q-33 54 -33 113z" />
<glyph unicode="u" horiz-adv-x="1587" d="M131 1389q0 156 25 210q41 86 180 87q82 0 82 -58l-25 -215q-27 -233 -26 -690q0 -336 32 -367q14 -10 39 -10q88 0 373 113q207 84 373 168q-23 489 -23 770q0 143 25 198q39 92 168 93q94 0 94 -60q0 -47 -10 -139q-16 -125 -19 -139q-23 -217 -22 -541q0 -229 28 -442 q25 -195 25 -213q0 -51 -53 -80q-55 -31 -109 -31q-61 0 -80 45q-6 16 -12 268q-168 -96 -455 -198q-313 -111 -465 -111q-109 0 -108 119q0 25 2 49q4 33 0 51v25q-4 211 -23 549q-16 371 -16 549z" />
<glyph unicode="v" horiz-adv-x="1282" d="M35 1597q0 100 145 101q66 0 94 -115l12.5 -84t14.5 -86q89 -488 295 -995l184 522l99 289q63 182 114 276q49 88 152 88q37 0 67 -12q45 -20 45 -49q0 -25 -51 -125q-43 -88 -67 -133q-207 -436 -310 -959q-6 -90 -41 -221q-25 -61 -147 -61q-119 0 -158 63 q-31 49 -239 746q-209 697 -209 755z" />
<glyph unicode="w" horiz-adv-x="1994" d="M41 1507q0 51 53 110.5t105 59.5q25 0 39 -20q37 -49 159 -512q57 -221 185 -623q82 283 288 824q76 203 164 202q39 0 64 -61q10 -27 28 -96q12 -43 123 -344q86 -227 158 -457l317 995q16 61 48 133q20 39 49 39q49 0 94 -82q45 -72 45 -123q0 -16 -86 -217 q-104 -246 -203 -583l-158 -596q-31 -106 -108 -107q-35 0 -59 57q-10 20 -82 277q-49 164 -123 350l-140 344q-190 -535 -331 -1044q-28 -104 -111 -105q-35 0 -57 54q-14 37 -37 135l-31 135q-172 682 -307 1028q-86 221 -86 227z" />
<glyph unicode="x" horiz-adv-x="1449" d="M90 1579q0 49 29 102q33 61 82 62q23 0 49 -27q33 -33 69 -100l62 -109q151 -240 319 -460l181 317q104 178 198 307q43 59 119 60q59 0 109 -31q61 -33 61 -88q0 -14 -10 -35q0 -4 -94 -125q-200 -261 -412 -602l141 -176q74 -88 152 -166q70 -63 151 -152 q18 -25 19 -59q0 -49 -35 -115q-39 -70 -88 -69q-16 0 -33 12q-47 35 -108 119l-97 131l-219 280q-139 -238 -225 -419q-27 -72 -86 -187q-29 -47 -96 -47q-49 0 -97 25q-55 31 -55 75q0 33 412 748l-246 305q-137 172 -223 322q-29 51 -29 102z" />
<glyph unicode="y" horiz-adv-x="1501" d="M41 1528q0 43 39 106q41 66 80 66q20 0 45 -31q9 -12 92 -147q203 -335 461 -658q43 78 340 576q37 72 145 235q47 59 121 60q57 0 109 -31q61 -37 61 -88q0 -27 -92 -150l-119 -155q-381 -516 -623 -1024l-75 -178q-55 -102 -144 -103q-41 0 -88 27q-51 33 -51 73 q0 12 303 562l-280 370q-137 174 -291 392q-33 51 -33 98z" />
<glyph unicode="z" horiz-adv-x="1574" d="M74 195q0 31 20 69q25 43 66 94q72 84 76 88l784 984q-35 2 -100 2q-295 0 -596 -68q-29 -4 -39 -4q-59 0 -96 41t-37 102q0 29 12 60q31 82 301 125q197 27 350 26q182 0 350 -33q258 -51 258 -174q0 -43 -39 -94q-25 -33 -94 -100q-25 -25 -49 -46.5l-36.5 -32.5 t-14.5 -13q-453 -459 -782 -951q90 -8 213 -8q217 0 749 53q57 4 66 4q104 0 104 -63q0 -45 -41 -82q-37 -35 -86 -55q-266 -92 -827 -92q-225 0 -303 10q-209 33 -209 158z" />
<glyph unicode="{" horiz-adv-x="1818" d="M49 836q0 61 39 110q35 43 102 53q45 4 275 13q334 12 573 12q205 0 240 -10q47 -14 47 -78q0 -68 -29 -111q-29 -53 -92 -53l-14 2q-14 2 -47 6t-70 8q-199 27 -323 27q-143 0 -433 -37q-184 -23 -202 -22q-66 0 -66 80zM674 1712q0 49 51 100.5t100 51.5q35 0 351 -176 q309 -178 348 -218q10 -10 10 -24q0 -45 -53 -109q-51 -61 -97 -61q-10 0 -133 98l-76.5 61.5l-52 42t-18.5 15.5q-72 51 -285 131q-66 20 -125 49q-20 14 -20 39zM788 -10q0 41 29 69q46 49 320 252q285 207 309 207q37 0 78 -74q37 -63 37 -108q0 -23 -19 -41l-84 -39 q-229 -106 -381 -262q-164 -166 -180 -166q-41 0 -78 61q-31 56 -31 101z" />
<glyph unicode="|" horiz-adv-x="620" d="M170 1671q0 248 201 248q82 0 82 -76q0 -57 -11 -180q-15 -151 -18 -178q-23 -332 -23 -621q0 -406 25 -661q3 -15 18 -135q10 -92 11 -138q0 -53 -56 -92q-57 -41 -110 -41q-57 0 -74 58q-12 37 -12 116q0 78 2 119l-2 37q-2 193 -19 772q-14 450 -14 772z" />
<glyph unicode="}" horiz-adv-x="1978" d="M322 1350q0 25 16 45l293 153q23 14 190 172q145 143 162 144q41 0 76 -66q33 -57 33 -100q0 -39 -29 -68q-47 -53 -318 -254q-285 -207 -313 -207q-37 0 -78 72q-32 66 -32 109zM344 246q0 43 53 104q55 63 99 64q16 0 133 -99q141 -117 145 -118q92 -63 301 -140 q63 -20 78 -26q53 -23 53 -47q0 -51 -51 -104.5t-102 -53.5q-43 0 -346 174q-309 178 -351 219q-12 13 -12 27zM553 752q0 61 27 106q31 59 86 60q12 0 139 -17q201 -29 323 -29q176 0 433 35q190 25 204 25q68 0 68 -80q0 -139 -141 -162q-57 -8 -289 -16 q-322 -10 -531 -10q-236 0 -266 12q-53 15 -53 76z" />
<glyph unicode="~" horiz-adv-x="1312" d="M100 899q0 82 82 152q76 63 164 63q76 0 250 -76q170 -74 262 -73q68 0 150 65l122 117q35 0 64 -72q23 -63 23 -104q0 -88 -109 -168q-104 -78 -203 -78q-84 0 -248 76q-168 78 -235 78q-61 0 -143 -76t-103 -76q-33 0 -57 70q-19 55 -19 102z" />
<glyph unicode="&#xa8;" horiz-adv-x="847" />
<glyph unicode="&#xa9;" horiz-adv-x="2019" d="M111 692q0 262 145 514q147 256 379 416q248 168 508 168q315 0 540 -225q223 -223 224 -545q0 -254 -150 -512q-152 -260 -379 -414q-248 -168 -508 -168q-319 0 -540 224q-219 220 -219 542zM365 801q0 -258 143 -457q157 -221 405 -221q164 0 336 102q387 227 387 662 q0 256 -145 456q-156 221 -408 222q-164 0 -333 -101q-385 -223 -385 -663zM541 637q0 168 194 442q164 231 369 232q100 0 186 -80q123 -111 123 -170q0 -35 -43 -59.5t-84 -24.5q-25 0 -92.5 55t-122.5 55q-90 0 -205 -108q-113 -106 -112 -199q0 -100 82 -155 q74 -45 178 -45q92 0 213 84t170 84q29 0 30 -23q-31 -139 -241 -246q-186 -92 -348 -92q-125 0 -207 59q-90 68 -90 191z" />
<glyph unicode="&#xaa;" d="M25 160q0 37 53 116q29 49 76 117q143 248 284 608l234 629q39 106 157 107q55 0 86 -56q35 -72 54 -131l45 -137q212 -568 454 -977l37 -58.5l37 -58.5q53 -86 53 -116q0 -51 -55 -97q-57 -47 -108 -47q-53 0 -109 111l-66 160q-385 -92 -948 -197q-70 -168 -125 -168 q-57 0 -108 68q-51 66 -51 127zM428 406q391 61 719 182l-334 784q-72 -161 -385 -966z" />
<glyph unicode="&#xad;" horiz-adv-x="1329" d="M92 797q0 72 121 71q27 0 43 -2h35q244 0 426 33q31 6 225 66q160 53 195 53q49 0 86 -66q31 -59 30 -108q0 -39 -32 -58q-51 -27 -478 -92q-412 -61 -512 -61q-59 0 -98 51q-41 54 -41 113z" />
<glyph unicode="&#xae;" horiz-adv-x="2027" d="M119 692q0 262 145 514q150 258 379 416q244 168 508 168q319 0 541 -225q223 -227 223 -545q0 -258 -152 -520q-147 -252 -385 -410q-248 -168 -512 -168q-307 0 -528 230q-219 227 -219 540zM373 799q0 -258 145 -455q160 -221 406 -221q166 0 333 102q387 227 388 664 q0 260 -148 457q-162 215 -414 215q-293 0 -505 -238q-205 -229 -205 -524zM510 1026q0 37 78 121q188 207 399 207q168 0 293 -78q143 -88 143 -252q0 -166 -141 -264q-98 -70 -293 -119l301 -160q68 -37 68 -73q0 -23 -49 -23q-33 0 -64 12l-457 168q27 -152 27 -184 q0 -25 -31 -41q-33 -16 -61 -16q-39 0 -51 26q-27 63 -27 651q-47 -66 -72 -65q-20 0 -43 33q-20 28 -20 57zM770 920q0 -53 4 -164l25 -15q481 20 481 260q0 90 -94 152q-84 53 -182 53q-113 0 -228 -82q-6 -100 -6 -204z" />
<glyph unicode="&#xb2;" horiz-adv-x="1490" d="M131 137q0 27 6 45q8 129 121 160q365 100 580 297q188 176 247 289q16 33 17 82q0 70 -23 149q-49 162 -182 252q-119 78 -258 78q-231 0 -330 -178q-41 -66 -43 -70q-23 -29 -63 -29q-39 0 -39 95q0 117 55 245q53 127 131 191q55 43 152 43q266 0 504 -213 q250 -223 323 -555q8 -33 8 -90q0 -92 -53 -154q-43 -55 -223 -211q-211 -180 -365 -293q438 23 633 23q43 0 43 -49q0 -35 -22 -86q-20 -45 -45 -68q-84 -68 -508 -86q-138 -6 -523 -6q-68 0 -100 22q-43 31 -43 117z" />
<glyph unicode="&#xb3;" horiz-adv-x="1548" d="M109 152q0 98 65 98q14 0 72 -23q163 -68 338 -67q195 0 362 106q197 123 197 305q0 115 -76 172q-78 59 -193 60q-41 0 -139 -16.5t-141 -16.5q-86 0 -86 78q0 71 67 141q47 47 138 74q94 27 125 49q57 47 57 150q0 98 -76 168q-74 68 -176 67q-84 0 -170 -61 q-41 -27 -129 -113q-65 -61 -92 -61q-49 0 -49 90q0 72 94 190q82 109 188 170q123 74 242 74q154 0 291 -150q135 -147 135 -303q0 -168 -170 -313q211 -66 303 -135q150 -106 150 -279q0 -279 -328 -475q-287 -174 -584 -174q-94 0 -184 18q-119 20 -174 56 q-57 37 -57 121z" />
<glyph unicode="&#xb9;" horiz-adv-x="735" d="M72 1413q0 53 73 94q70 37 183 86q135 53 184 54q57 0 57 -52q0 -55 -8 -122q-4 -27 -6 -52.5t-4 -44t-2 -24.5q-8 -121 -8 -332q0 -383 45 -678q8 -41 20 -96q12 -61 12 -99q0 -47 -71 -75q-55 -25 -111 -25q-41 0 -57 41q-29 90 -31 285q-2 98 -2 297q-9 362 -12 669 q-141 -66 -158 -65q-37 0 -72 53q-32 49 -32 86z" />
<glyph unicode="&#xba;" horiz-adv-x="2023" d="M90 797q0 399 313 688q305 287 707 287q346 0 592 -236q242 -233 242 -580q0 -395 -314 -690q-313 -285 -708 -284q-347 0 -590 233q-242 234 -242 582zM373 862q0 -276 182 -479q188 -211 459 -211q266 0 450 215q178 203 178 475q0 276 -180 481q-188 213 -461 213 q-264 0 -452 -217q-176 -211 -176 -477z" />
<glyph unicode="&#xc0;" d="M25 160q0 37 53 116q29 49 76 117q143 248 284 608l234 629q10 27 24 47q-102 59 -262 174q-55 43 -41 117q8 47 43 84q37 46 80 37q28 -6 240 -172q195 -150 245 -201q47 -47 39 -90q-16 -72 -65 -92q174 -565 493 -1098l37 -58.5l37 -58.5q53 -86 53 -116 q0 -51 -55 -97q-57 -47 -108 -47q-53 0 -109 111l-66 160q-385 -92 -948 -197q-70 -168 -125 -168q-57 0 -108 68q-51 66 -51 127zM428 406q391 61 719 182l-334 784q-72 -161 -385 -966z" />
<glyph unicode="&#xc1;" d="M25 160q0 37 53 116q29 49 76 117q139 238 274 580l223 602l-2 8q-12 43 37 88q2 2 7 8.5t12 12.5q14 14 32 24q377 317 437 330q37 8 79 -37q35 -45 43 -84q14 -72 -41 -119q-59 -47 -305 -200l64 -193q212 -568 454 -977l37 -58.5l37 -58.5q53 -86 53 -116 q0 -51 -55 -97q-57 -47 -108 -47q-53 0 -109 111l-66 160q-385 -92 -948 -197q-70 -168 -125 -168q-57 0 -108 68q-51 66 -51 127zM428 406q391 61 719 182l-334 784q-72 -161 -385 -966z" />
<glyph unicode="&#xc2;" d="M25 160q0 37 53 116q29 49 76 117q143 248 284 608l234 629q39 106 157 107q55 0 86 -56q35 -72 54 -131l45 -137q212 -568 454 -977l37 -58.5l37 -58.5q53 -86 53 -116q0 -51 -55 -97q-57 -47 -108 -47q-53 0 -109 111l-66 160q-385 -92 -948 -197q-70 -168 -125 -168 q-57 0 -108 68q-51 66 -51 127zM428 406q391 61 719 182l-334 784q-72 -161 -385 -966zM432 1675q0 20 35 62q170 201 233 346q31 68 72 67q23 0 49 -14q31 -16 39 -37q74 -82 244 -299q68 -84 67.5 -108.5t-20.5 -51.5q-27 -33 -53 -32q-29 0 -66 55q-102 172 -239 303 l-197 -293q-39 -59 -82 -59q-20 0 -51 18t-31 43z" />
<glyph unicode="&#xc3;" d="M25 160q0 37 53 116q29 49 76 117q143 248 284 608l234 629q39 102 151 107q-117 55 -157 55q-37 0 -88.5 -47t-61.5 -47q-22 0 -37 43q-10 31 -10 63q0 51 47 90q51 41 102 41q53 0 152 -45q104 -47 162 -47q39 0 90 41l76 70q20 0 35 -39q16 -43 16 -68q0 -49 -68 -100 q-65 -49 -123 -49q-25 0 -61 10q33 -39 68 -141l27.5 -85t21.5 -69q212 -568 454 -977l37 -58.5l37 -58.5q53 -86 53 -116q0 -51 -55 -97q-57 -47 -108 -47q-53 0 -109 111l-66 160q-385 -92 -948 -197q-70 -168 -125 -168q-57 0 -108 68q-51 66 -51 127zM428 406 q391 61 719 182l-334 784q-72 -161 -385 -966z" />
<glyph unicode="&#xc4;" d="M25 160q0 37 53 116q29 49 76 117q143 248 284 608l234 629q39 106 157 107q55 0 86 -56q35 -72 54 -131l45 -137q212 -568 454 -977l37 -58.5l37 -58.5q53 -86 53 -116q0 -51 -55 -97q-57 -47 -108 -47q-53 0 -109 111l-66 160q-385 -92 -948 -197q-70 -168 -125 -168 q-57 0 -108 68q-51 66 -51 127zM428 406q391 61 719 182l-334 784q-72 -161 -385 -966zM467 1743q0 141 14 213q6 45 109 45q90 0 90 -35q0 -27 -21 -117q-20 -88 -30 -116q-18 -41 -88 -41q-74 0 -74 51zM1006 1729q0 141 14 213q6 45 108 45q90 0 91 -35q0 -27 -21 -117 q-22 -95 -31 -117q-23 -41 -88 -41q-73 1 -73 52z" />
<glyph unicode="&#xc5;" d="M25 160q0 37 53 116q29 49 76 117q143 248 284 608l234 629q14 39 39 64q-84 43 -84 139q0 78 59 131q61 55 135 55q68 0 115 -45t47 -112q0 -95 -86 -154q33 -37 66 -139l51 -156q212 -568 454 -977l37 -58.5l37 -58.5q53 -86 53 -116q0 -51 -55 -97q-57 -47 -108 -47 q-53 0 -109 111l-66 160q-385 -92 -948 -197q-70 -168 -125 -168q-57 0 -108 68q-51 66 -51 127zM428 406q391 61 719 182l-334 784q-72 -161 -385 -966zM707 1845q0 -43 28 -76q27 -31 70 -30q40 0 67 30q27 29 27 76t-27 76q-29 31 -69 31q-43 0 -69.5 -33t-26.5 -74z" />
<glyph unicode="&#xc8;" horiz-adv-x="1538" d="M61 829q0 90 76 121h2q-12 162 -12 430q0 100 2 105q8 57 49 88q18 16 103 41l211 67q-78 43 -250 168q-55 43 -41 117q10 51 43 84q37 46 80 37q23 -2 204 -145l256 -205h23h84q100 2 151 -8q76 -16 127 -76q53 -63 54 -111q0 -68 -123 -78q-291 -25 -381 -41 q-172 -33 -367 -116q-10 -154 -10 -293q469 139 858 139q88 0 117 -6q45 -6 110 -45q68 -45 68 -90q0 -53 -135 -70q-670 -78 -1012 -192q10 -264 45 -492q199 0 432 47l428 94q33 8 62 9q82 0 82 -70q0 -45 -31 -94t-72 -72q-166 -94 -458 -149q-250 -43 -488 -43 q-121 0 -162 65q-27 45 -41 657q-84 31 -84 127z" />
<glyph unicode="&#xc9;" horiz-adv-x="1538" d="M61 829q0 90 76 121h2q-12 162 -12 430q0 100 2 105q8 57 49 88q18 16 103 41l141 45l4 6q70 66 248 203q211 168 239 170q39 8 80 -35q35 -41 43 -84q16 -72 -41 -119l-84 -63q92 2 140 -11q66 -18 118 -73q53 -63 54 -111q0 -68 -123 -78q-291 -25 -381 -41 q-172 -33 -367 -116q-10 -154 -10 -293q469 139 858 139q88 0 117 -6q45 -6 110 -45q68 -45 68 -90q0 -53 -135 -70q-670 -78 -1012 -192q10 -264 45 -492q199 0 432 47l428 94q33 8 62 9q82 0 82 -70q0 -45 -31 -94t-72 -72q-166 -94 -458 -149q-250 -43 -488 -43 q-121 0 -162 65q-27 45 -41 657q-84 31 -84 127z" />
<glyph unicode="&#xca;" horiz-adv-x="1538" d="M61 829q0 90 76 121h2q-12 162 -12 430q0 100 2 105q8 57 49 88q18 16 103 41q37 10 47 14q-14 14 -15 33q0 20 35 61q168 197 234 344q27 70 73 70q20 0 50 -14q27 -14 36 -37l244 -299l45 -55q82 -14 137.5 -76t55.5 -113q0 -68 -123 -78q-291 -25 -381 -41 q-172 -33 -367 -116q-10 -154 -10 -293q469 139 858 139q88 0 117 -6q45 -6 110 -45q68 -45 68 -90q0 -53 -135 -70q-670 -78 -1012 -192q10 -264 45 -492q199 0 432 47l428 94q33 8 62 9q82 0 82 -70q0 -45 -31 -94t-72 -72q-166 -94 -458 -149q-250 -43 -488 -43 q-121 0 -162 65q-27 45 -41 657q-84 31 -84 127zM494 1681q181 55 313 56h49q-74 106 -180 213z" />
<glyph unicode="&#xcb;" horiz-adv-x="1538" d="M61 829q0 90 76 121h2q-12 162 -12 430q0 100 2 105q8 57 49 88q18 16 103 41l91 27.5t76.5 24.5l90.5 30q154 41 268 41h84q100 2 151 -8q76 -16 127 -76q53 -63 54 -111q0 -68 -123 -78q-291 -25 -381 -41q-172 -33 -367 -116q-10 -154 -10 -293q469 139 858 139 q88 0 117 -6q45 -6 110 -45q68 -45 68 -90q0 -53 -135 -70q-670 -78 -1012 -192q10 -264 45 -492q199 0 432 47l428 94q33 8 62 9q82 0 82 -70q0 -45 -31 -94t-72 -72q-166 -94 -458 -149q-250 -43 -488 -43q-121 0 -162 65q-27 45 -41 657q-84 31 -84 127zM354 1843 q0 141 15 213q6 45 108 45q90 0 90 -35q0 -27 -20 -116q-20 -88 -31 -117q-18 -41 -88 -41q-74 0 -74 51zM893 1829q0 141 14 213q6 45 109 45q90 0 90 -35q0 -27 -21 -117q-20 -88 -30 -116q-18 -41 -88 -41q-74 0 -74 51z" />
<glyph unicode="&#xcc;" horiz-adv-x="1245" d="M98 1460q0 106 74 150q92 52 209 86q-121 76 -143 94q-80 68 -66 141q10 51 43 84q39 45 80 37q47 -8 403 -303q35 4 101 4q143 0 207 -20q111 -31 147 -131q8 -18 8 -48q0 -27 -8 -36q-20 -33 -115 -39q-287 -23 -356 -29q-18 -233 -18 -451q0 -377 55 -725q25 4 186 54 q125 33 191 32q59 0 59 -49q0 -41 -28.5 -86t-63.5 -67q-115 -70 -371 -121q-218 -43 -393 -43q-92 0 -137 22q-59 29 -60 117q0 106 136 107q35 0 61 -2q53 -4 55 -5q76 0 138 7q-25 346 -35 1149q-221 -98 -256 -99q-49 0 -80 64q-23 51 -23 106z" />
<glyph unicode="&#xcd;" horiz-adv-x="1245" d="M98 1460q0 106 72 148q66 37 160 71q6 27 37 58q55 51 247 202q213 168 240 170q39 8 80 -34q35 -41 43 -84q16 -78 -68 -144q-23 -18 -145 -94h35q143 0 207 -20q111 -31 147 -131q8 -18 8 -48q0 -27 -8 -36q-20 -33 -115 -39q-287 -23 -356 -29q-18 -233 -18 -451 q0 -377 55 -725q25 4 186 54q125 33 191 32q59 0 59 -49q0 -41 -28.5 -86t-63.5 -67q-115 -70 -371 -121q-218 -43 -393 -43q-92 0 -137 22q-59 29 -60 117q0 106 136 107q35 0 61 -2q53 -4 55 -5q76 0 138 7q-25 346 -35 1149q-221 -98 -256 -99q-49 0 -80 64 q-23 51 -23 106z" />
<glyph unicode="&#xce;" horiz-adv-x="1245" d="M98 1460q0 106 74 150q33 18 76 39q-2 4 -2 14q0 20 35 61q170 201 233 347q27 68 72 67q23 0 49 -14q31 -18 39 -37q51 -57 244 -299l36 -43q152 -25 199 -143q8 -18 8 -48q0 -27 -8 -36q-20 -33 -115 -39q-287 -23 -356 -29q-18 -233 -18 -451q0 -377 55 -725 q25 4 186 54q125 33 191 32q59 0 59 -49q0 -41 -28.5 -86t-63.5 -67q-115 -70 -371 -121q-218 -43 -393 -43q-92 0 -137 22q-59 29 -60 117q0 106 136 107q35 0 61 -2q53 -4 55 -5q76 0 138 7q-25 346 -35 1149q-221 -98 -256 -99q-49 0 -80 64q-23 51 -23 106zM444 1712 q152 37 334 41q-78 106 -172 199q-47 -78 -162 -240z" />
<glyph unicode="&#xcf;" horiz-adv-x="1245" d="M98 1460q0 106 74 150q250 143 627 143q143 0 207 -20q111 -31 147 -131q8 -18 8 -48q0 -27 -8 -36q-20 -33 -115 -39q-287 -23 -356 -29q-18 -233 -18 -451q0 -377 55 -725q25 4 186 54q125 33 191 32q59 0 59 -49q0 -41 -28.5 -86t-63.5 -67q-115 -70 -371 -121 q-218 -43 -393 -43q-92 0 -137 22q-59 29 -60 117q0 106 136 107q35 0 61 -2q53 -4 55 -5q76 0 138 7q-25 346 -35 1149q-221 -98 -256 -99q-49 0 -80 64q-23 51 -23 106zM227 1866q0 143 15 215q8 45 108 45q90 0 90 -35q0 -29 -20.5 -119t-30.5 -114q-20 -41 -86 -41 q-76 0 -76 49zM766 1851q0 143 14 215q8 45 109 45q90 0 90 -34q0 -29 -20.5 -119t-30.5 -115q-18 -41 -86 -41q-76 0 -76 49z" />
<glyph unicode="&#xd1;" horiz-adv-x="1667" d="M109 1280q0 176 16 219q37 94 184 94q51 0 76 -26l883 -1026l24 542q8 178 11 277q10 193 24 274q14 121 174 121q72 0 72 -78q0 -16 -19 -114q-80 -420 -79 -908q0 -168 10 -307q0 -2 3 -29.5t7 -52.5q8 -43 8 -82q0 -131 -174 -131q-37 0 -54.5 10.5t-14.5 32.5 l-906 1024q-12 -195 -12 -370q0 -309 29 -527q0 -2 2 -13l5 -28.5t7 -38.5q10 -55 10 -82q0 -49 -59 -79q-49 -29 -103 -29q-66 0 -79 47q-8 23 -27 621q-18 553 -18 659zM508 1720q0 51 47 90q51 41 102 41q49 0 152 -45q106 -47 162 -47q39 0 90 41l76 70q23 0 37 -39 q14 -37 14 -68q0 -51 -67.5 -100t-123.5 -49q-45 0 -149.5 47t-142.5 47q-37 0 -88.5 -47t-61.5 -47q-23 0 -37 43q-10 40 -10 63z" />
<glyph unicode="&#xd2;" horiz-adv-x="2023" d="M90 797q0 322 215 585q207 250 522 347q-102 61 -249 167q-55 43 -41 117q10 51 43 84q39 45 79 37q27 -4 222 -158q168 -129 254 -207q344 -10 573 -239q236 -236 236 -574q0 -395 -314 -690q-313 -285 -708 -284q-347 0 -590 233q-242 234 -242 582zM373 862 q0 -276 182 -479q188 -211 459 -211q266 0 450 215q178 203 178 475q0 276 -180 481q-188 213 -461 213q-264 0 -452 -217q-176 -211 -176 -477z" />
<glyph unicode="&#xd3;" horiz-adv-x="2023" d="M90 797q0 313 209 575q199 248 506 350q12 33 37 58q70 66 248 202q211 168 239 170q39 8 80 -34q35 -45 43 -84q14 -72 -41 -119q-92 -74 -219 -148q317 -31 534 -256q217 -231 218 -555q0 -395 -314 -690q-313 -285 -708 -284q-347 0 -590 233q-242 234 -242 582z M373 862q0 -276 182 -479q188 -211 459 -211q266 0 450 215q178 203 178 475q0 276 -180 481q-188 213 -461 213q-264 0 -452 -217q-176 -211 -176 -477z" />
<glyph unicode="&#xd4;" horiz-adv-x="2023" d="M90 797q0 264 150 495q139 217 378 348v11q0 25 35 61q172 205 234 346q31 68 71 68q23 0 50 -15q31 -18 39 -36q53 -57 243 -299q14 -14 27 -29q274 -63 450.5 -282.5t176.5 -508.5q0 -395 -314 -690q-313 -285 -708 -284q-347 0 -590 233q-242 234 -242 582zM373 862 q0 -276 182 -479q188 -211 459 -211q266 0 450 215q178 203 178 475q0 276 -180 481q-188 213 -461 213q-264 0 -452 -217q-176 -211 -176 -477zM838 1733q137 39 272 39l18 -3q-74 98 -149 173q-12 -20 -32.5 -50l-52 -77z" />
<glyph unicode="&#xd5;" horiz-adv-x="2023" d="M90 797q0 387 297 671q289 283 676 301q-135 61 -172 62q-37 0 -88 -47t-62 -47q-20 0 -36 43q-10 37 -11 63q0 51 47 90q51 41 103 41q45 0 151 -47q102 -45 162 -45q43 0 90 41l23.5 22.5l28 25.5l24.5 22q20 0 37 -41q14 -37 14 -66q0 -74 -110 -129q299 -53 485 -270 q195 -221 195 -531q0 -395 -314 -690q-313 -285 -708 -284q-347 0 -590 233q-242 234 -242 582zM373 862q0 -276 182 -479q188 -211 459 -211q266 0 450 215q178 203 178 475q0 276 -180 481q-188 213 -461 213q-264 0 -452 -217q-176 -211 -176 -477z" />
<glyph unicode="&#xd6;" horiz-adv-x="2023" d="M90 797q0 399 313 688q305 287 707 287q346 0 592 -236q242 -233 242 -580q0 -395 -314 -690q-313 -285 -708 -284q-347 0 -590 233q-242 234 -242 582zM373 862q0 -276 182 -479q188 -211 459 -211q266 0 450 215q178 203 178 475q0 276 -180 481q-188 213 -461 213 q-264 0 -452 -217q-176 -211 -176 -477zM700 1876q0 143 15 213q6 45 108 45q90 0 90 -35q0 -27 -20 -117q-22 -95 -31 -116q-18 -41 -88 -41q-74 0 -74 51zM1239 1862q0 141 14 213q6 45 109 45q90 0 90 -35q0 -27 -20 -117q-23 -104 -31 -117q-18 -41 -88 -41 q-74 1 -74 52z" />
<glyph unicode="&#xd9;" horiz-adv-x="1587" d="M131 1389q0 156 25 210q41 86 180 87q82 0 82 -58l-25 -215q-27 -233 -26 -690q0 -336 32 -367q14 -10 39 -10q88 0 373 113q207 84 373 168q-23 489 -23 770q0 143 25 198q39 92 168 93q94 0 94 -60q0 -47 -10 -139q-16 -125 -19 -139q-23 -217 -22 -541q0 -229 28 -442 q25 -195 25 -213q0 -51 -53 -80q-55 -31 -109 -31q-61 0 -80 45q-6 16 -12 268q-168 -96 -455 -198q-313 -111 -465 -111q-109 0 -108 119q0 25 2 49q4 33 0 51v25q-4 211 -23 549q-16 371 -16 549zM420 1913q8 47 43 84q37 46 80 37q28 -6 239 -172q199 -154 248 -203 q45 -45 37 -88q-10 -43 -37 -70q-31 -35 -69 -26q-37 6 -87 47q-66 49 -208 133q-129 78 -205 139q-57 47 -41 119z" />
<glyph unicode="&#xda;" horiz-adv-x="1587" d="M131 1389q0 156 25 210q41 86 180 87q82 0 82 -58l-25 -215q-27 -233 -26 -690q0 -336 32 -367q14 -10 39 -10q88 0 373 113q207 84 373 168q-23 489 -23 770q0 143 25 198q39 92 168 93q94 0 94 -60q0 -47 -10 -139q-16 -125 -19 -139q-23 -217 -22 -541q0 -229 28 -442 q25 -195 25 -213q0 -51 -53 -80q-55 -31 -109 -31q-61 0 -80 45q-6 16 -12 268q-168 -96 -455 -198q-313 -111 -465 -111q-109 0 -108 119q0 25 2 49q4 33 0 51v25q-4 211 -23 549q-16 371 -16 549zM592 1577q-8 43 39 90q46 46 246 203q213 168 239 170q43 8 80 -35 q29 -35 43 -84q14 -72 -41 -119q-66 -55 -205 -139q-127 -78 -209 -135q-47 -39 -86 -45q-37 -8 -67 22q-29 29 -39 72z" />
<glyph unicode="&#xdb;" horiz-adv-x="1587" d="M131 1389q0 156 25 210q41 86 180 87q82 0 82 -58l-25 -215q-27 -233 -26 -690q0 -336 32 -367q14 -10 39 -10q88 0 373 113q207 84 373 168q-23 489 -23 770q0 143 25 198q39 92 168 93q94 0 94 -60q0 -47 -10 -139q-16 -125 -19 -139q-23 -217 -22 -541q0 -229 28 -442 q25 -195 25 -213q0 -51 -53 -80q-55 -31 -109 -31q-61 0 -80 45q-6 16 -12 268q-168 -96 -455 -198q-313 -111 -465 -111q-109 0 -108 119q0 25 2 49q4 33 0 51v25q-4 211 -23 549q-16 371 -16 549zM469 1706q0 20 35 61q168 197 233 344q27 70 74 70q20 0 47 -14 q31 -16 39 -37l244 -299q68 -82 67 -111q0 -25 -20 -53q-20 -31 -53 -31t-66 58q-111 178 -238 301l-198 -291q-40 -61 -80 -62q-23 0 -53.5 18.5t-30.5 45.5z" />
<glyph unicode="&#xdc;" horiz-adv-x="1587" d="M131 1389q0 156 25 210q41 86 180 87q82 0 82 -58l-25 -215q-27 -233 -26 -690q0 -336 32 -367q14 -10 39 -10q88 0 373 113q207 84 373 168q-23 489 -23 770q0 143 25 198q39 92 168 93q94 0 94 -60q0 -47 -10 -139q-16 -125 -19 -139q-23 -217 -22 -541q0 -229 28 -442 q25 -195 25 -213q0 -51 -53 -80q-55 -31 -109 -31q-61 0 -80 45q-6 16 -12 268q-168 -96 -455 -198q-313 -111 -465 -111q-109 0 -108 119q0 25 2 49q4 33 0 51v25q-4 211 -23 549q-16 371 -16 549zM528 1743q0 141 15 213q6 45 108 45q90 0 90 -35q0 -27 -20 -117 q-20 -88 -31 -116q-18 -41 -88 -41q-74 0 -74 51zM1006 1729q0 141 14 213q6 45 108 45q90 0 91 -35q0 -27 -21 -117q-22 -95 -31 -117q-23 -41 -88 -41q-73 1 -73 52z" />
<glyph unicode="&#xdd;" horiz-adv-x="1501" d="M41 1528q0 43 39 106q41 66 80 66q20 0 45 -31q9 -12 92 -147q203 -335 461 -658q43 78 340 576q37 72 145 235q47 59 121 60q57 0 109 -31q61 -37 61 -88q0 -27 -92 -150l-119 -155q-381 -516 -623 -1024l-75 -178q-55 -102 -144 -103q-41 0 -88 27q-51 33 -51 73 q0 12 303 562l-280 370q-137 174 -291 392q-33 51 -33 98zM512 1585q-8 43 39 90q46 46 246 203q213 168 239 170q43 8 80 -35q31 -39 43 -84q14 -72 -41 -119q-66 -55 -205 -139q-127 -78 -208 -135q-47 -35 -87 -45q-37 -8 -67 22q-29 29 -39 72z" />
<glyph unicode="&#xe0;" d="M25 160q0 37 53 116q29 49 76 117q143 248 284 608l234 629q10 27 24 47q-102 59 -262 174q-55 43 -41 117q8 47 43 84q37 46 80 37q28 -6 240 -172q195 -150 245 -201q47 -47 39 -90q-16 -72 -65 -92q174 -565 493 -1098l37 -58.5l37 -58.5q53 -86 53 -116 q0 -51 -55 -97q-57 -47 -108 -47q-53 0 -109 111l-66 160q-385 -92 -948 -197q-70 -168 -125 -168q-57 0 -108 68q-51 66 -51 127zM428 406q391 61 719 182l-334 784q-72 -161 -385 -966z" />
<glyph unicode="&#xe1;" d="M25 160q0 37 53 116q29 49 76 117q139 238 274 580l223 602l-2 8q-12 43 37 88q2 2 7 8.5t12 12.5q14 14 32 24q377 317 437 330q37 8 79 -37q35 -45 43 -84q14 -72 -41 -119q-59 -47 -305 -200l64 -193q212 -568 454 -977l37 -58.5l37 -58.5q53 -86 53 -116 q0 -51 -55 -97q-57 -47 -108 -47q-53 0 -109 111l-66 160q-385 -92 -948 -197q-70 -168 -125 -168q-57 0 -108 68q-51 66 -51 127zM428 406q391 61 719 182l-334 784q-72 -161 -385 -966z" />
<glyph unicode="&#xe2;" d="M25 160q0 37 53 116q29 49 76 117q143 248 284 608l234 629q39 106 157 107q55 0 86 -56q35 -72 54 -131l45 -137q212 -568 454 -977l37 -58.5l37 -58.5q53 -86 53 -116q0 -51 -55 -97q-57 -47 -108 -47q-53 0 -109 111l-66 160q-385 -92 -948 -197q-70 -168 -125 -168 q-57 0 -108 68q-51 66 -51 127zM428 406q391 61 719 182l-334 784q-72 -161 -385 -966zM432 1675q0 20 35 62q170 201 233 346q31 68 72 67q23 0 49 -14q31 -16 39 -37q74 -82 244 -299q68 -84 67.5 -108.5t-20.5 -51.5q-27 -33 -53 -32q-29 0 -66 55q-102 172 -239 303 l-197 -293q-39 -59 -82 -59q-20 0 -51 18t-31 43z" />
<glyph unicode="&#xe3;" d="M25 160q0 37 53 116q29 49 76 117q143 248 284 608l234 629q39 102 151 107q-117 55 -157 55q-37 0 -88.5 -47t-61.5 -47q-22 0 -37 43q-10 31 -10 63q0 51 47 90q51 41 102 41q53 0 152 -45q104 -47 162 -47q39 0 90 41l76 70q20 0 35 -39q16 -43 16 -68q0 -49 -68 -100 q-65 -49 -123 -49q-25 0 -61 10q33 -39 68 -141l27.5 -85t21.5 -69q212 -568 454 -977l37 -58.5l37 -58.5q53 -86 53 -116q0 -51 -55 -97q-57 -47 -108 -47q-53 0 -109 111l-66 160q-385 -92 -948 -197q-70 -168 -125 -168q-57 0 -108 68q-51 66 -51 127zM428 406 q391 61 719 182l-334 784q-72 -161 -385 -966z" />
<glyph unicode="&#xe4;" d="M25 160q0 37 53 116q29 49 76 117q143 248 284 608l234 629q39 106 157 107q55 0 86 -56q35 -72 54 -131l45 -137q212 -568 454 -977l37 -58.5l37 -58.5q53 -86 53 -116q0 -51 -55 -97q-57 -47 -108 -47q-53 0 -109 111l-66 160q-385 -92 -948 -197q-70 -168 -125 -168 q-57 0 -108 68q-51 66 -51 127zM428 406q391 61 719 182l-334 784q-72 -161 -385 -966zM467 1743q0 141 14 213q6 45 109 45q90 0 90 -35q0 -27 -21 -117q-20 -88 -30 -116q-18 -41 -88 -41q-74 0 -74 51zM1006 1729q0 141 14 213q6 45 108 45q90 0 91 -35q0 -27 -21 -117 q-22 -95 -31 -117q-23 -41 -88 -41q-73 1 -73 52z" />
<glyph unicode="&#xe5;" d="M25 160q0 37 53 116q29 49 76 117q143 248 284 608l234 629q14 39 39 64q-84 43 -84 139q0 78 59 131q61 55 135 55q68 0 115 -45t47 -112q0 -95 -86 -154q33 -37 66 -139l51 -156q212 -568 454 -977l37 -58.5l37 -58.5q53 -86 53 -116q0 -51 -55 -97q-57 -47 -108 -47 q-53 0 -109 111l-66 160q-385 -92 -948 -197q-70 -168 -125 -168q-57 0 -108 68q-51 66 -51 127zM428 406q391 61 719 182l-334 784q-72 -161 -385 -966zM707 1845q0 -43 28 -76q27 -31 70 -30q40 0 67 30q27 29 27 76t-27 76q-29 31 -69 31q-43 0 -69.5 -33t-26.5 -74z" />
<glyph unicode="&#xe8;" horiz-adv-x="1538" d="M61 829q0 90 76 121h2q-12 162 -12 430q0 100 2 105q8 57 49 88q18 16 103 41l211 67q-78 43 -250 168q-55 43 -41 117q10 51 43 84q37 46 80 37q23 -2 204 -145l256 -205h23h84q100 2 151 -8q76 -16 127 -76q53 -63 54 -111q0 -68 -123 -78q-291 -25 -381 -41 q-172 -33 -367 -116q-10 -154 -10 -293q469 139 858 139q88 0 117 -6q45 -6 110 -45q68 -45 68 -90q0 -53 -135 -70q-670 -78 -1012 -192q10 -264 45 -492q199 0 432 47l428 94q33 8 62 9q82 0 82 -70q0 -45 -31 -94t-72 -72q-166 -94 -458 -149q-250 -43 -488 -43 q-121 0 -162 65q-27 45 -41 657q-84 31 -84 127z" />
<glyph unicode="&#xe9;" horiz-adv-x="1538" d="M61 829q0 90 76 121h2q-12 162 -12 430q0 100 2 105q8 57 49 88q18 16 103 41l141 45l4 6q70 66 248 203q211 168 239 170q39 8 80 -35q35 -41 43 -84q16 -72 -41 -119l-84 -63q92 2 140 -11q66 -18 118 -73q53 -63 54 -111q0 -68 -123 -78q-291 -25 -381 -41 q-172 -33 -367 -116q-10 -154 -10 -293q469 139 858 139q88 0 117 -6q45 -6 110 -45q68 -45 68 -90q0 -53 -135 -70q-670 -78 -1012 -192q10 -264 45 -492q199 0 432 47l428 94q33 8 62 9q82 0 82 -70q0 -45 -31 -94t-72 -72q-166 -94 -458 -149q-250 -43 -488 -43 q-121 0 -162 65q-27 45 -41 657q-84 31 -84 127z" />
<glyph unicode="&#xea;" horiz-adv-x="1538" d="M61 829q0 90 76 121h2q-12 162 -12 430q0 100 2 105q8 57 49 88q18 16 103 41q37 10 47 14q-14 14 -15 33q0 20 35 61q168 197 234 344q27 70 73 70q20 0 50 -14q27 -14 36 -37l244 -299l45 -55q82 -14 137.5 -76t55.5 -113q0 -68 -123 -78q-291 -25 -381 -41 q-172 -33 -367 -116q-10 -154 -10 -293q469 139 858 139q88 0 117 -6q45 -6 110 -45q68 -45 68 -90q0 -53 -135 -70q-670 -78 -1012 -192q10 -264 45 -492q199 0 432 47l428 94q33 8 62 9q82 0 82 -70q0 -45 -31 -94t-72 -72q-166 -94 -458 -149q-250 -43 -488 -43 q-121 0 -162 65q-27 45 -41 657q-84 31 -84 127zM494 1681q181 55 313 56h49q-74 106 -180 213z" />
<glyph unicode="&#xeb;" horiz-adv-x="1538" d="M61 829q0 90 76 121h2q-12 162 -12 430q0 100 2 105q8 57 49 88q18 16 103 41l91 27.5t76.5 24.5l90.5 30q154 41 268 41h84q100 2 151 -8q76 -16 127 -76q53 -63 54 -111q0 -68 -123 -78q-291 -25 -381 -41q-172 -33 -367 -116q-10 -154 -10 -293q469 139 858 139 q88 0 117 -6q45 -6 110 -45q68 -45 68 -90q0 -53 -135 -70q-670 -78 -1012 -192q10 -264 45 -492q199 0 432 47l428 94q33 8 62 9q82 0 82 -70q0 -45 -31 -94t-72 -72q-166 -94 -458 -149q-250 -43 -488 -43q-121 0 -162 65q-27 45 -41 657q-84 31 -84 127zM354 1843 q0 141 15 213q6 45 108 45q90 0 90 -35q0 -27 -20 -116q-20 -88 -31 -117q-18 -41 -88 -41q-74 0 -74 51zM893 1829q0 141 14 213q6 45 109 45q90 0 90 -35q0 -27 -21 -117q-20 -88 -30 -116q-18 -41 -88 -41q-74 0 -74 51z" />
<glyph unicode="&#xec;" horiz-adv-x="593" d="M-180 1974q8 47 43 84q37 46 80 37q31 -9 239 -172q209 -164 246 -201q47 -47 39 -90q-6 -29 -25 -57l-28 -225q-23 -248 -23 -480q0 -289 27 -528l16 -100q10 -68 10 -101q0 -43 -61 -73q-51 -25 -102 -25q-88 0 -88 133v49q2 20 2 45l-2 35q-4 154 -19 600 q-12 375 -12 602q0 80 43 123q-117 71 -344 228q-55 42 -41 116z" />
<glyph unicode="&#xed;" horiz-adv-x="593" d="M162 1507q0 47 14 78q-2 4 -2 10q-10 43 37 91q46 46 246 202q217 168 239 170q43 10 82 -35q31 -37 41 -84q14 -74 -39 -118q-72 -55 -166 -115l-172 -107l-28 -249q-23 -248 -23 -480q0 -289 27 -528l16 -100q10 -68 10 -101q0 -43 -61 -73q-51 -25 -102 -25 q-88 0 -88 133v49q2 20 2 45l-2 35q-4 154 -19 600q-12 375 -12 602z" />
<glyph unicode="&#xee;" horiz-adv-x="593" d="M-72 1612q0 20 35 61q175 203 234 344q31 70 73 70q14 0 47 -16q31 -14 39 -35l244 -299q68 -82 68 -111q0 -20 -23 -53q-23 -31 -51.5 -31t-65.5 57q-106 176 -237 302l-199 -291q-40 -61 -80 -62q-23 0 -53.5 18.5t-30.5 45.5zM162 1507q0 176 200 176q80 0 80 -55 q0 -47 -10 -139l-18 -139q-23 -248 -23 -480q0 -289 27 -528l16 -100q10 -68 10 -101q0 -43 -61 -73q-51 -25 -102 -25q-88 0 -88 133v49q2 20 2 45l-2 35q-4 154 -19 600q-12 375 -12 602z" />
<glyph unicode="&#xef;" horiz-adv-x="593" d="M90 1810q0 141 14 213q6 45 109 45q90 0 90 -34q0 -27 -20 -117q-22 -95 -31 -117q-18 -41 -88 -41q-74 0 -74 51zM162 1507q0 176 200 176q80 0 80 -55q0 -47 -10 -139l-18 -139q-23 -248 -23 -480q0 -289 27 -528l16 -100q10 -68 10 -101q0 -43 -61 -73 q-51 -25 -102 -25q-88 0 -88 133v49q2 20 2 45l-2 35q-4 154 -19 600q-12 375 -12 602zM383 1796q0 141 14 213q6 45 109 45q90 0 90 -35q0 -27 -21 -116q-23 -104 -30 -117q-18 -41 -88 -41q-74 0 -74 51z" />
<glyph unicode="&#xf1;" horiz-adv-x="1667" d="M109 1280q0 176 16 219q37 94 184 94q51 0 76 -26l883 -1026l24 542q8 178 11 277q10 193 24 274q14 121 174 121q72 0 72 -78q0 -16 -19 -114q-80 -420 -79 -908q0 -168 10 -307q0 -2 3 -29.5t7 -52.5q8 -43 8 -82q0 -131 -174 -131q-37 0 -54.5 10.5t-14.5 32.5 l-906 1024q-12 -195 -12 -370q0 -309 29 -527q0 -2 2 -13l5 -28.5t7 -38.5q10 -55 10 -82q0 -49 -59 -79q-49 -29 -103 -29q-66 0 -79 47q-8 23 -27 621q-18 553 -18 659zM508 1720q0 51 47 90q51 41 102 41q49 0 152 -45q106 -47 162 -47q39 0 90 41l76 70q23 0 37 -39 q14 -37 14 -68q0 -51 -67.5 -100t-123.5 -49q-45 0 -149.5 47t-142.5 47q-37 0 -88.5 -47t-61.5 -47q-23 0 -37 43q-10 40 -10 63z" />
<glyph unicode="&#xf2;" horiz-adv-x="2023" d="M90 797q0 322 215 585q207 250 522 347q-102 61 -249 167q-55 43 -41 117q10 51 43 84q39 45 79 37q27 -4 222 -158q168 -129 254 -207q344 -10 573 -239q236 -236 236 -574q0 -395 -314 -690q-313 -285 -708 -284q-347 0 -590 233q-242 234 -242 582zM373 862 q0 -276 182 -479q188 -211 459 -211q266 0 450 215q178 203 178 475q0 276 -180 481q-188 213 -461 213q-264 0 -452 -217q-176 -211 -176 -477z" />
<glyph unicode="&#xf3;" horiz-adv-x="2023" d="M90 797q0 313 209 575q199 248 506 350q12 33 37 58q70 66 248 202q211 168 239 170q39 8 80 -34q35 -45 43 -84q14 -72 -41 -119q-92 -74 -219 -148q317 -31 534 -256q217 -231 218 -555q0 -395 -314 -690q-313 -285 -708 -284q-347 0 -590 233q-242 234 -242 582z M373 862q0 -276 182 -479q188 -211 459 -211q266 0 450 215q178 203 178 475q0 276 -180 481q-188 213 -461 213q-264 0 -452 -217q-176 -211 -176 -477z" />
<glyph unicode="&#xf4;" horiz-adv-x="2023" d="M90 797q0 264 150 495q139 217 378 348v11q0 25 35 61q172 205 234 346q31 68 71 68q23 0 50 -15q31 -18 39 -36q53 -57 243 -299q14 -14 27 -29q274 -63 450.5 -282.5t176.5 -508.5q0 -395 -314 -690q-313 -285 -708 -284q-347 0 -590 233q-242 234 -242 582zM373 862 q0 -276 182 -479q188 -211 459 -211q266 0 450 215q178 203 178 475q0 276 -180 481q-188 213 -461 213q-264 0 -452 -217q-176 -211 -176 -477zM838 1733q137 39 272 39l18 -3q-74 98 -149 173q-12 -20 -32.5 -50l-52 -77z" />
<glyph unicode="&#xf5;" horiz-adv-x="2023" d="M90 797q0 387 297 671q289 283 676 301q-135 61 -172 62q-37 0 -88 -47t-62 -47q-20 0 -36 43q-10 37 -11 63q0 51 47 90q51 41 103 41q45 0 151 -47q102 -45 162 -45q43 0 90 41l23.5 22.5l28 25.5l24.5 22q20 0 37 -41q14 -37 14 -66q0 -74 -110 -129q299 -53 485 -270 q195 -221 195 -531q0 -395 -314 -690q-313 -285 -708 -284q-347 0 -590 233q-242 234 -242 582zM373 862q0 -276 182 -479q188 -211 459 -211q266 0 450 215q178 203 178 475q0 276 -180 481q-188 213 -461 213q-264 0 -452 -217q-176 -211 -176 -477z" />
<glyph unicode="&#xf6;" horiz-adv-x="2023" d="M90 797q0 399 313 688q305 287 707 287q346 0 592 -236q242 -233 242 -580q0 -395 -314 -690q-313 -285 -708 -284q-347 0 -590 233q-242 234 -242 582zM373 862q0 -276 182 -479q188 -211 459 -211q266 0 450 215q178 203 178 475q0 276 -180 481q-188 213 -461 213 q-264 0 -452 -217q-176 -211 -176 -477zM700 1876q0 143 15 213q6 45 108 45q90 0 90 -35q0 -27 -20 -117q-22 -95 -31 -116q-18 -41 -88 -41q-74 0 -74 51zM1239 1862q0 141 14 213q6 45 109 45q90 0 90 -35q0 -27 -20 -117q-23 -104 -31 -117q-18 -41 -88 -41 q-74 1 -74 52z" />
<glyph unicode="&#xf9;" horiz-adv-x="1587" d="M131 1389q0 156 25 210q41 86 180 87q82 0 82 -58l-25 -215q-27 -233 -26 -690q0 -336 32 -367q14 -10 39 -10q88 0 373 113q207 84 373 168q-23 489 -23 770q0 143 25 198q39 92 168 93q94 0 94 -60q0 -47 -10 -139q-16 -125 -19 -139q-23 -217 -22 -541q0 -229 28 -442 q25 -195 25 -213q0 -51 -53 -80q-55 -31 -109 -31q-61 0 -80 45q-6 16 -12 268q-168 -96 -455 -198q-313 -111 -465 -111q-109 0 -108 119q0 25 2 49q4 33 0 51v25q-4 211 -23 549q-16 371 -16 549zM420 1913q8 47 43 84q37 46 80 37q28 -6 239 -172q199 -154 248 -203 q45 -45 37 -88q-10 -43 -37 -70q-31 -35 -69 -26q-37 6 -87 47q-66 49 -208 133q-129 78 -205 139q-57 47 -41 119z" />
<glyph unicode="&#xfa;" horiz-adv-x="1587" d="M131 1389q0 156 25 210q41 86 180 87q82 0 82 -58l-25 -215q-27 -233 -26 -690q0 -336 32 -367q14 -10 39 -10q88 0 373 113q207 84 373 168q-23 489 -23 770q0 143 25 198q39 92 168 93q94 0 94 -60q0 -47 -10 -139q-16 -125 -19 -139q-23 -217 -22 -541q0 -229 28 -442 q25 -195 25 -213q0 -51 -53 -80q-55 -31 -109 -31q-61 0 -80 45q-6 16 -12 268q-168 -96 -455 -198q-313 -111 -465 -111q-109 0 -108 119q0 25 2 49q4 33 0 51v25q-4 211 -23 549q-16 371 -16 549zM592 1577q-8 43 39 90q46 46 246 203q213 168 239 170q43 8 80 -35 q29 -35 43 -84q14 -72 -41 -119q-66 -55 -205 -139q-127 -78 -209 -135q-47 -39 -86 -45q-37 -8 -67 22q-29 29 -39 72z" />
<glyph unicode="&#xfb;" horiz-adv-x="1587" d="M131 1389q0 156 25 210q41 86 180 87q82 0 82 -58l-25 -215q-27 -233 -26 -690q0 -336 32 -367q14 -10 39 -10q88 0 373 113q207 84 373 168q-23 489 -23 770q0 143 25 198q39 92 168 93q94 0 94 -60q0 -47 -10 -139q-16 -125 -19 -139q-23 -217 -22 -541q0 -229 28 -442 q25 -195 25 -213q0 -51 -53 -80q-55 -31 -109 -31q-61 0 -80 45q-6 16 -12 268q-168 -96 -455 -198q-313 -111 -465 -111q-109 0 -108 119q0 25 2 49q4 33 0 51v25q-4 211 -23 549q-16 371 -16 549zM469 1706q0 20 35 61q168 197 233 344q27 70 74 70q20 0 47 -14 q31 -16 39 -37l244 -299q68 -82 67 -111q0 -25 -20 -53q-20 -31 -53 -31t-66 58q-111 178 -238 301l-198 -291q-40 -61 -80 -62q-23 0 -53.5 18.5t-30.5 45.5z" />
<glyph unicode="&#xfc;" horiz-adv-x="1587" d="M131 1389q0 156 25 210q41 86 180 87q82 0 82 -58l-25 -215q-27 -233 -26 -690q0 -336 32 -367q14 -10 39 -10q88 0 373 113q207 84 373 168q-23 489 -23 770q0 143 25 198q39 92 168 93q94 0 94 -60q0 -47 -10 -139q-16 -125 -19 -139q-23 -217 -22 -541q0 -229 28 -442 q25 -195 25 -213q0 -51 -53 -80q-55 -31 -109 -31q-61 0 -80 45q-6 16 -12 268q-168 -96 -455 -198q-313 -111 -465 -111q-109 0 -108 119q0 25 2 49q4 33 0 51v25q-4 211 -23 549q-16 371 -16 549zM528 1743q0 141 15 213q6 45 108 45q90 0 90 -35q0 -27 -20 -117 q-20 -88 -31 -116q-18 -41 -88 -41q-74 0 -74 51zM1006 1729q0 141 14 213q6 45 108 45q90 0 91 -35q0 -27 -21 -117q-22 -95 -31 -117q-23 -41 -88 -41q-73 1 -73 52z" />
<glyph unicode="&#xfd;" horiz-adv-x="1501" d="M41 1528q0 43 39 106q41 66 80 66q20 0 45 -31q9 -12 92 -147q203 -335 461 -658q43 78 340 576q37 72 145 235q47 59 121 60q57 0 109 -31q61 -37 61 -88q0 -27 -92 -150l-119 -155q-381 -516 -623 -1024l-75 -178q-55 -102 -144 -103q-41 0 -88 27q-51 33 -51 73 q0 12 303 562l-280 370q-137 174 -291 392q-33 51 -33 98zM514 1602q-8 43 39 90q46 46 246 202q213 168 239 170q43 8 80 -34q31 -39 43 -84q14 -72 -41 -119q-66 -55 -205 -139q-127 -78 -208 -136q-53 -39 -86 -45q-35 -8 -68 25q-29 29 -39 70z" />
<glyph unicode="&#xff;" horiz-adv-x="1501" d="M41 1528q0 43 39 106q41 66 80 66q20 0 45 -31q9 -12 92 -147q203 -335 461 -658q43 78 340 576q37 72 145 235q47 59 121 60q57 0 109 -31q61 -37 61 -88q0 -27 -92 -150l-119 -155q-381 -516 -623 -1024l-75 -178q-55 -102 -144 -103q-41 0 -88 27q-51 33 -51 73 q0 12 303 562l-280 370q-137 174 -291 392q-33 51 -33 98zM406 1743q0 141 14 213q6 45 108 45q90 0 90 -35q0 -27 -20 -117q-20 -88 -31 -116q-23 -41 -88 -41q-73 0 -73 51zM944 1729q0 141 14 213q6 45 109 45q90 0 90 -35q0 -27 -20 -117q-22 -95 -31 -117 q-18 -41 -88 -41q-74 1 -74 52z" />
<glyph unicode="&#x152;" horiz-adv-x="3563" d="M2084 829q0 90 76 121h2q-12 162 -12 430q0 100 2 105q8 57 49 88q18 16 103 41l91 27.5t76.5 24.5l90.5 30q154 41 268 41h84q19 1 37 0q74 0 114 -8q76 -16 127 -76q53 -63 54 -111q0 -68 -123 -78q-291 -25 -381 -41q-172 -33 -367 -116q-10 -154 -10 -293 q469 139 858 139q88 0 117 -6q45 -6 110 -45q68 -45 68 -90q0 -53 -135 -70q-670 -78 -1012 -192q10 -264 45 -492q199 0 432 47l428 94q33 8 62 9q82 0 82 -70q0 -45 -31 -94t-72 -72q-166 -94 -458 -149q-250 -43 -488 -43q-121 0 -162 65q-27 45 -41 657q-84 31 -84 127z M90 797q0 399 313 688q305 287 707 287q346 0 592 -236q242 -233 242 -580q0 -395 -314 -690q-313 -285 -708 -284q-347 0 -590 233q-242 234 -242 582zM373 862q0 -276 182 -479q188 -211 459 -211q266 0 450 215q178 203 178 475q0 276 -180 481q-188 213 -461 213 q-264 0 -452 -217q-176 -211 -176 -477z" />
<glyph unicode="&#x153;" horiz-adv-x="3563" d="M2084 829q0 90 76 121h2q-12 162 -12 430q0 100 2 105q8 57 49 88q18 16 103 41l91 27.5t76.5 24.5l90.5 30q154 41 268 41h84q19 1 37 0q74 0 114 -8q76 -16 127 -76q53 -63 54 -111q0 -68 -123 -78q-291 -25 -381 -41q-172 -33 -367 -116q-10 -154 -10 -293 q469 139 858 139q88 0 117 -6q45 -6 110 -45q68 -45 68 -90q0 -53 -135 -70q-670 -78 -1012 -192q10 -264 45 -492q199 0 432 47l428 94q33 8 62 9q82 0 82 -70q0 -45 -31 -94t-72 -72q-166 -94 -458 -149q-250 -43 -488 -43q-121 0 -162 65q-27 45 -41 657q-84 31 -84 127z M90 797q0 399 313 688q305 287 707 287q346 0 592 -236q242 -233 242 -580q0 -395 -314 -690q-313 -285 -708 -284q-347 0 -590 233q-242 234 -242 582zM373 862q0 -276 182 -479q188 -211 459 -211q266 0 450 215q178 203 178 475q0 276 -180 481q-188 213 -461 213 q-264 0 -452 -217q-176 -211 -176 -477z" />
<glyph unicode="&#x178;" horiz-adv-x="1501" d="M41 1528q0 43 39 106q41 66 80 66q20 0 45 -31q9 -12 92 -147q203 -335 461 -658q43 78 340 576q37 72 145 235q47 59 121 60q57 0 109 -31q61 -37 61 -88q0 -27 -92 -150l-119 -155q-381 -516 -623 -1024l-75 -178q-55 -102 -144 -103q-41 0 -88 27q-51 33 -51 73 q0 12 303 562l-280 370q-137 174 -291 392q-33 51 -33 98zM406 1743q0 141 14 213q6 45 108 45q90 0 90 -35q0 -27 -20 -117q-20 -88 -31 -116q-23 -41 -88 -41q-73 0 -73 51zM944 1729q0 141 14 213q6 45 109 45q90 0 90 -35q0 -27 -20 -117q-22 -95 -31 -117 q-18 -41 -88 -41q-74 1 -74 52z" />
<glyph unicode="&#x2c6;" horiz-adv-x="897" d="M68 1442q0 16 34 61q168 197 234 344q29 70 74 70q16 0 49 -16q29 -14 37 -35l243 -299q68 -86 68 -111q0 -20 -23 -53q-23 -31 -51 -31q-33 0 -65 58q-106 176 -238 301l-199 -291q-43 -61 -79 -62q-23 0 -53.5 18.5t-30.5 45.5z" />
<glyph unicode="&#x2dc;" horiz-adv-x="847" d="M-566 297q0 82 82 152q76 63 164 63q76 0 250 -76q170 -74 262 -73q68 0 150 65l122 117q35 0 64 -72q23 -63 23 -104q0 -88 -109 -168q-104 -78 -203 -78q-84 0 -248 76q-168 78 -235 78q-61 0 -143 -76t-103 -76q-33 0 -57 70q-19 55 -19 102z" />
<glyph unicode="&#x2000;" horiz-adv-x="1089" />
<glyph unicode="&#x2001;" horiz-adv-x="2181" />
<glyph unicode="&#x2002;" horiz-adv-x="1089" />
<glyph unicode="&#x2003;" horiz-adv-x="2181" />
<glyph unicode="&#x2004;" horiz-adv-x="724" />
<glyph unicode="&#x2005;" horiz-adv-x="542" />
<glyph unicode="&#x2006;" horiz-adv-x="360" />
<glyph unicode="&#x2007;" horiz-adv-x="360" />
<glyph unicode="&#x2008;" horiz-adv-x="270" />
<glyph unicode="&#x2009;" horiz-adv-x="434" />
<glyph unicode="&#x200a;" horiz-adv-x="118" />
<glyph unicode="&#x2010;" horiz-adv-x="1329" d="M92 797q0 72 121 71q27 0 43 -2h35q244 0 426 33q31 6 225 66q160 53 195 53q49 0 86 -66q31 -59 30 -108q0 -39 -32 -58q-51 -27 -478 -92q-412 -61 -512 -61q-59 0 -98 51q-41 54 -41 113z" />
<glyph unicode="&#x2011;" horiz-adv-x="1329" d="M92 797q0 72 121 71q27 0 43 -2h35q244 0 426 33q31 6 225 66q160 53 195 53q49 0 86 -66q31 -59 30 -108q0 -39 -32 -58q-51 -27 -478 -92q-412 -61 -512 -61q-59 0 -98 51q-41 54 -41 113z" />
<glyph unicode="&#x2012;" horiz-adv-x="1329" d="M92 797q0 72 121 71q27 0 43 -2h35q244 0 426 33q31 6 225 66q160 53 195 53q49 0 86 -66q31 -59 30 -108q0 -39 -32 -58q-51 -27 -478 -92q-412 -61 -512 -61q-59 0 -98 51q-41 54 -41 113z" />
<glyph unicode="&#x2013;" horiz-adv-x="1024" d="M205 512v205h614v-205h-614z" />
<glyph unicode="&#x2014;" horiz-adv-x="2048" d="M205 512v205h1638v-205h-1638z" />
<glyph unicode="&#x2018;" horiz-adv-x="821" d="M150 1827q0 43 51 71q43 25 90 25q76 0 102 -57q31 -66 123 -291q100 -244 100 -266q0 -39 -34 -64q-33 -25 -72 -24q-55 0 -88 51q-41 63 -152 284q-120 246 -120 271z" />
<glyph unicode="&#x2019;" horiz-adv-x="813" d="M238 1309q0 27 32 96q33 68 90 229q55 151 99 228q31 61 106 61q47 0 90 -25q49 -31 50 -73q0 -25 -121 -271q-113 -223 -152 -282q-33 -51 -80 -51q-45 0 -76 22q-38 27 -38 66z" />
<glyph unicode="&#x201c;" horiz-adv-x="1130" d="M129 1712q0 43 51 72q43 25 90 24q74 0 105 -61q12 -20 121 -291q100 -250 100 -264q0 -41 -37 -64q-39 -23 -78 -22q-47 0 -80 51q-41 63 -151 285q-121 245 -121 270zM502 1837q0 43 51 72q45 25 92 24q74 0 105 -61q29 -63 120 -289q100 -250 101 -266q0 -39 -33 -64 q-34 -25 -74 -24q-49 0 -90 55q-35 51 -151 281q-121 245 -121 272z" />
<glyph unicode="&#x201d;" horiz-adv-x="1040" d="M160 1317q0 27 33 96q33 68 90 229q55 152 96 230q35 61 108 61q47 0 91 -24q49 -31 49 -74q0 -25 -121 -270q-121 -240 -150 -281q-37 -55 -90 -55q-40 0 -73 24q-33 25 -33 64zM532 1192q0 31 33 96q35 70 92 230q57 162 95 227q33 63 110 63q45 0 94 -26 q45 -25 45 -72q0 -35 -120 -270q-113 -225 -152 -281q-37 -53 -82 -53q-41 0 -78 24.5t-37 61.5z" />
<glyph unicode="&#x2026;" horiz-adv-x="1636" d="M207 88q0 182 16 266q10 55 135 56q113 0 113 -43q0 -31 -25 -148q-25 -113 -38 -143q-20 -51 -109 -51q-92 0 -92 63zM707 90q0 164 16 266q12 55 135 56q113 0 113 -43q0 -20 -27 -148q-25 -121 -37 -143q-25 -51 -108 -51q-92 0 -92 63zM1206 92q0 164 17 266 q9 55 135 56q113 0 112 -43q0 -31 -24 -148q-27 -123 -39 -143q-20 -51 -109 -51q-92 0 -92 63z" />
<glyph unicode="&#x202f;" horiz-adv-x="434" />
<glyph unicode="&#x2039;" horiz-adv-x="1546" d="M51 778q0 43 29 105q31 68 74 65q133 117 882 723l187 148q41 29 75 28q41 0 101 -43q57 -43 57 -84q0 -37 -123 -112q-559 -344 -971 -787l850 -575q66 -43 170 -121q55 -47 56 -100q0 -35 -27 -93q-31 -59 -68 -59q-23 0 -120 82q-524 449 -951 659q-37 18 -71.5 33 t-63.5 29q-86 43 -86 102z" />
<glyph unicode="&#x203a;" horiz-adv-x="1572" d="M92 1720q0 49 51 86q49 35 103 35q37 0 78 -22q45 -25 96 -70l92 -78l879 -723q41 2 75 -65q29 -51 29 -103q0 -58 -86 -104q-25 -12 -47.5 -21.5t-39.5 -17.5l-48 -23q-403 -207 -825 -553l-125 -108q-100 -82 -125 -82q-35 0 -66 61q-25 55 -24 95q0 51 53 98 q6 8 172 121l850 575q-383 401 -869 723q-84 47 -202 133q-21 18 -21 43z" />
<glyph unicode="&#x205f;" horiz-adv-x="542" />
<glyph unicode="&#x2122;" horiz-adv-x="2029" d="M125 1647q0 92 170 135q121 29 254 28q70 0 129 -20q84 -31 84 -86q0 -28 -111 -43l-141 -8q-10 -143 -10 -256q0 -199 28 -410q4 -33 8.5 -62.5t6.5 -41.5l2 -13q0 -25 -33 -47q-29 -20 -61.5 -20t-44.5 24q-23 43 -29 795q-184 -59 -197 -59q-29 0 -43 30 q-12 21 -12 54zM715 952q18 45 49 109q115 240 180 438l55 189q22 61 62 61q27 0 45 -37q0 -2 33 -113q33 -106 88 -241l100 -236q57 156 109 336q29 96 52 180l33.5 120t10.5 38q18 57 65 57q31 0 54 -71l24 -103q47 -197 90 -321l78 -189q57 -154 58 -174q0 -27 -35 -61.5 t-60 -34.5q-16 0 -28 19q-16 23 -95 274l-96 313l-104 -366q-96 -297 -150 -297q-80 0 -266 590q-164 -481 -231 -582q-14 -20 -31 -21q-33 0 -62 48q-24 38 -28 75z" />
<glyph unicode="&#xfb01;" horiz-adv-x="2013" d="M1581 1507q0 176 200 176q80 0 80 -55q0 -47 -10 -139l-18 -139q-23 -248 -23 -480q0 -289 27 -528l16 -100q10 -68 10 -101q0 -43 -61 -73q-51 -25 -102 -25q-88 0 -88 133v49q2 20 2 45l-2 35q-4 158 -19 602q-12 375 -12 600zM49 829q0 98 78 117q-12 328 -12 422 q0 100 2 109q10 61 49 90q18 16 102 41q285 86 297 90q152 33 314 33q117 0 151 -9q74 -14 127 -75q53 -59 53 -109q0 -70 -125 -80q-281 -23 -378 -41q-176 -33 -369 -117q-8 -131 -8 -286q436 133 786 133q68 0 105 -6q47 -8 106 -49t59 -86q0 -14 -8 -29 q-23 -33 -116 -41q-578 -66 -928 -186q2 -102 31 -318q18 -113 26 -156q14 -88 15 -157q0 -51 -60 -84q-53 -27 -104 -27q-59 0 -78 41q-18 43 -31 647q-84 22 -84 133z" />
<glyph unicode="&#xfb02;" horiz-adv-x="2822" d="M1542 1395q0 145 16 186q31 90 150 90q78 0 78 -55l-17 -217q-14 -184 -14 -381q0 -403 53 -705q199 0 395 33q63 10 273 66q211 51 252 51q84 0 84 -72q0 -102 -103 -164q-133 -82 -436 -143q-273 -55 -461 -55q-174 0 -211 71q-25 47 -43 617q-16 410 -16 678zM49 829 q0 98 78 117q-12 328 -12 422q0 100 2 109q10 61 49 90q18 16 102 41q285 86 297 90q152 33 314 33q117 0 151 -9q74 -14 127 -75q53 -59 53 -109q0 -70 -125 -80q-281 -23 -378 -41q-176 -33 -369 -117q-8 -131 -8 -286q436 133 786 133q68 0 105 -6q47 -8 106 -49t59 -86 q0 -14 -8 -29q-23 -33 -116 -41q-578 -66 -928 -186q2 -102 31 -318q18 -113 26 -156q14 -88 15 -157q0 -51 -60 -84q-53 -27 -104 -27q-59 0 -78 41q-18 43 -31 647q-84 22 -84 133z" />
<glyph unicode="&#xfb03;" horiz-adv-x="3432" d="M3003 1507q0 176 200 176q80 0 80 -55q0 -47 -10 -139l-18 -139q-23 -248 -23 -480q0 -289 27 -528l16 -100q10 -68 10 -101q0 -43 -61 -73q-51 -25 -102 -25q-88 0 -88 133v49q2 20 2 45l-2 35q-4 158 -19 602q-12 375 -12 600zM1468 829q0 98 78 117q-12 328 -12 422 q0 100 2 109q10 61 49 90q18 16 102 41q285 86 297 90q152 33 314 33q117 0 151 -9q74 -14 127 -75q53 -59 53 -109q0 -70 -125 -80q-281 -23 -378 -41q-176 -33 -369 -117q-8 -131 -8 -286q436 133 786 133q68 0 105 -6q47 -8 106 -49t59 -86q0 -14 -8 -29 q-23 -33 -116 -41q-578 -66 -928 -186q2 -102 31 -318q18 -113 26 -156q14 -88 15 -157q0 -51 -60 -84q-53 -27 -104 -27q-59 0 -78 41q-18 43 -31 647q-84 22 -84 133zM49 829q0 98 78 117q-12 328 -12 422q0 100 2 109q10 61 49 90q18 16 102 41q285 86 297 90 q152 33 314 33q117 0 151 -9q74 -14 127 -75q53 -59 53 -109q0 -70 -125 -80q-281 -23 -378 -41q-176 -33 -369 -117q-8 -131 -8 -286q436 133 786 133q68 0 105 -6q47 -8 106 -49t59 -86q0 -14 -8 -29q-23 -33 -116 -41q-578 -66 -928 -186q2 -102 31 -318q18 -113 26 -156 q14 -88 15 -157q0 -51 -60 -84q-53 -27 -104 -27q-59 0 -78 41q-18 43 -31 647q-84 22 -84 133z" />
<glyph unicode="&#xfb04;" horiz-adv-x="4243" d="M2964 1395q0 145 16 186q31 90 150 90q78 0 78 -55l-17 -217q-14 -184 -14 -381q0 -403 53 -705q199 0 395 33q63 10 273 66q211 51 252 51q84 0 84 -72q0 -102 -103 -164q-133 -82 -436 -143q-273 -55 -461 -55q-174 0 -211 71q-25 47 -43 617q-16 410 -16 678z M1468 829q0 98 78 117q-12 328 -12 422q0 100 2 109q10 61 49 90q18 16 102 41q285 86 297 90q152 33 314 33q117 0 151 -9q74 -14 127 -75q53 -59 53 -109q0 -70 -125 -80q-281 -23 -378 -41q-176 -33 -369 -117q-8 -131 -8 -286q436 133 786 133q68 0 105 -6 q47 -8 106 -49t59 -86q0 -14 -8 -29q-23 -33 -116 -41q-578 -66 -928 -186q2 -102 31 -318q18 -113 26 -156q14 -88 15 -157q0 -51 -60 -84q-53 -27 -104 -27q-59 0 -78 41q-18 43 -31 647q-84 22 -84 133zM49 829q0 98 78 117q-12 328 -12 422q0 100 2 109q10 61 49 90 q18 16 102 41q285 86 297 90q152 33 314 33q117 0 151 -9q74 -14 127 -75q53 -59 53 -109q0 -70 -125 -80q-281 -23 -378 -41q-176 -33 -369 -117q-8 -131 -8 -286q436 133 786 133q68 0 105 -6q47 -8 106 -49t59 -86q0 -14 -8 -29q-23 -33 -116 -41q-578 -66 -928 -186 q2 -102 31 -318q18 -113 26 -156q14 -88 15 -157q0 -51 -60 -84q-53 -27 -104 -27q-59 0 -78 41q-18 43 -31 647q-84 22 -84 133z" />
</font>
</defs>
</svg>
