<?xml version="1.0" standalone="no"?>
<!DOCTYPE svg PUBLIC "-//W3C//DTD SVG 1.1//EN" "http://www.w3.org/Graphics/SVG/1.1/DTD/svg11.dtd" >
<svg xmlns="http://www.w3.org/2000/svg">
<metadata>Generated by IcoMoon</metadata>
<defs>
<font id="LayoutIcons" horiz-adv-x="1024">
<font-face units-per-em="1024" ascent="960" descent="-64" />
<missing-glyph horiz-adv-x="1024" />
<glyph unicode="&#x20;" d="" horiz-adv-x="512" />
<glyph unicode="&#xe600;" d="M153.6 806.4h335.155v-145.531h-335.155v145.531zM153.6 615.977h211.354v-145.531h-211.354v145.531zM409.907 615.977h207.585v-145.531h-207.585v145.531zM662.794 615.977h207.606v-145.531h-207.606v145.531zM535.245 806.4h335.155v-145.531h-335.155v145.531zM153.6 425.554h335.155v-145.531h-335.155v145.531zM153.6 235.151h211.374v-145.551h-211.374v145.551zM409.907 235.151h207.606v-145.551h-207.606v145.551zM662.815 235.151h207.585v-145.551h-207.585v145.551zM535.245 425.554h335.155v-145.531h-335.155v145.531z" />
<glyph unicode="&#xe601;" d="M870.359 806.4h-716.759v-716.8h716.8v716.8h-0.041zM829.399 765.44v-56.873h-634.798v56.873h634.798zM194.56 130.56v537.047h634.88v-537.047h-634.88zM307.2 603.873h409.6v-409.6h-409.6v409.6z" />
<glyph unicode="&#xe602;" d="M153.6 806.4v-716.8h716.8v716.8h-716.8zM829.44 130.56h-634.88v634.88h634.88v-634.88zM307.2 652.8h409.6v-409.6h-409.6v409.6z" />
<glyph unicode="&#xe603;" d="M154.685 806.407h713.284v-410.456h-713.284v410.456zM153.731 280.075h715.454v-189.168h-715.454v189.168z" />
<glyph unicode="&#xe604;" d="M153.6 807.449h499.589v-717.439h-499.589v717.439zM718.356 807.449h152.044v-717.439h-152.044v717.439z" />
<glyph unicode="&#xe605;" d="M153.6 806.83h371.753v-716.8h-371.753v716.8zM759.316 806.83h111.084v-716.8h-111.084v716.8zM586.793 806.83h111.084v-716.8h-111.084v716.8z" />
<glyph unicode="&#xe606;" d="M256 704h232.714v-512h-232.714v512zM535.286 704h232.714v-57.754h-232.714v57.754zM535.286 613.233h232.714v-57.958h-232.714v57.958zM535.286 522.24h232.714v-57.713h-232.714v57.713zM535.286 431.473h232.714v-57.713h-232.714v57.713zM535.286 340.705h232.714v-57.938h-232.714v57.938zM535.286 249.754h232.714v-57.754h-232.714v57.754zM153.6 806.4v-716.8h716.8v716.8h-716.8zM829.44 130.56h-634.88v634.88h634.88v-634.88z" />
<glyph unicode="&#xe607;" d="M153.6 806.4v-519.496h716.8v519.496h-716.8zM826.962 330.342h-629.924v432.62h629.924v-432.62zM153.6 227.164h325.816v-137.564h-325.816v137.564zM544.584 227.164h325.816v-137.564h-325.816v137.564z" />
<glyph unicode="&#xe608;" d="M153.6 806.4v-716.8h716.8v716.8h-716.8zM829.44 130.56h-634.88v634.88h634.88v-634.88zM256 703.959h512v-89.539h-512v89.539zM256 563.22h512v-89.6h-512v89.6zM256 422.42h512v-89.477h-512v89.477zM256 281.641h512v-89.682h-512v89.682z" />
<glyph unicode="&#xe609;" d="M153.6 806.359h125.317v-716.8h-125.317v716.8zM350.515 806.359h125.604v-716.8h-125.604v716.8zM547.738 806.359h125.276v-716.8h-125.276v716.8zM744.919 806.359h125.481v-716.8h-125.481v716.8z" />
<glyph unicode="&#xe60a;" d="M153.6 806.4h327.68v-327.68h-327.68v327.68zM542.72 806.4h327.68v-327.68h-327.68v327.68zM153.6 417.28h327.68v-327.68h-327.68v327.68zM542.72 417.28h327.68v-327.68h-327.68v327.68z" />
<glyph unicode="&#xe60b;" d="M153.6 806.4v-716.8h716.8v716.8h-716.8zM829.44 130.56h-634.88v634.88h634.88v-634.88zM245.76 714.24h532.48v-532.48h-532.48v532.48z" />
<glyph unicode="&#xe60c;" d="M153.6 806.4v-716.8h716.8v716.8h-716.8zM829.44 130.56h-634.88v634.88h634.88v-634.88zM440.32 714.24h143.36v-143.36h-143.36v143.36zM440.32 519.68h143.36v-143.36h-143.36v143.36zM440.32 325.12h143.36v-143.36h-143.36v143.36zM245.76 714.24h143.36v-143.36h-143.36v143.36zM245.76 519.68h143.36v-143.36h-143.36v143.36zM245.76 325.12h143.36v-143.36h-143.36v143.36zM634.88 714.24h143.36v-143.36h-143.36v143.36zM634.88 519.68h143.36v-143.36h-143.36v143.36zM634.88 325.12h143.36v-143.36h-143.36v143.36z" />
<glyph unicode="&#xe60d;" d="M153.6 806.4v-716.8h716.8v716.8h-716.8zM194.56 765.44h634.88v-634.88h-634.88v634.88zM655.36 714.24h102.4v-532.48h-102.4v532.48zM460.8 714.24h143.36v-143.36h-143.36v143.36zM460.8 519.68h143.36v-143.36h-143.36v143.36zM460.8 325.12h143.36v-143.36h-143.36v143.36zM266.24 714.24h143.36v-143.36h-143.36v143.36zM266.24 519.68h143.36v-143.36h-143.36v143.36zM266.24 325.12h143.36v-143.36h-143.36v143.36z" />
<glyph unicode="&#xe60e;" d="M153.6 806.4v-716.8h716.8v716.8h-716.8zM829.44 130.56h-634.88v634.88h634.88v-634.88zM266.24 714.24h102.4v-532.48h-102.4v532.48zM419.84 714.24h143.36v-143.36h-143.36v143.36zM419.84 519.68h143.36v-143.36h-143.36v143.36zM419.84 325.12h143.36v-143.36h-143.36v143.36zM614.4 714.24h143.36v-143.36h-143.36v143.36zM614.4 519.68h143.36v-143.36h-143.36v143.36zM614.4 325.12h143.36v-143.36h-143.36v143.36z" />
<glyph unicode="&#xe60f;" d="M153.6 587.366h716.8v-497.766h-716.8v497.766zM153.6 806.4h716.8v-159.293h-716.8v159.293z" />
<glyph unicode="&#xe610;" d="M153.6 277.606h317.44v-188.047h-317.44v188.047zM552.96 277.606h317.44v-188.047h-317.44v188.047zM552.96 542.208h317.44v-188.436h-317.44v188.436zM153.6 542.208h317.44v-188.436h-317.44v188.436zM153.6 806.359h317.44v-188.006h-317.44v188.006zM552.96 806.359h317.44v-188.006h-317.44v188.006z" />
<glyph unicode="&#xe611;" d="M153.6 806.4v-716.8h716.8v716.8h-716.8zM256.041 765.44v-56.873h-61.44v56.873h61.44zM829.399 708.567h-532.398v56.873h532.398v-56.873zM829.44 130.56h-532.48l0.041 537.047h532.439v-537.047zM194.56 667.607h61.481l-0.041-537.047h-61.44v537.047z" />
<glyph unicode="&#xe612;" d="M153.6 806.4h325.816v-716.8h-325.816v716.8zM544.584 417.321h325.816v-327.721h-325.816v327.721zM544.584 806.4h325.816v-327.66h-325.816v327.66z" />
<glyph unicode="&#xe613;" d="M153.6 286.904h716.8v323.994h-716.8v-323.994zM197.038 567.46h629.924v-237.117h-629.924v237.117zM153.6 227.164h716.8v-137.564h-716.8v137.564zM153.6 806.4h716.8v-137.564h-716.8v137.564z" />
<glyph unicode="&#xe614;" d="M153.6 806.4h716.8v-192.983h-716.8v192.983zM677.437 544.502h192.963v-193.004h-192.963v193.004zM415.519 544.502h192.963v-193.004h-192.963v193.004zM153.6 544.502h193.004v-193.004h-193.004v193.004zM677.437 282.583h192.963v-192.983h-192.963v192.983zM415.519 282.583h192.963v-192.983h-192.963v192.983zM153.6 282.583h193.004v-192.983h-193.004v192.983z" />
<glyph unicode="&#xe615;" d="M174.080 540.16h675.84v-430.080h-675.84v430.080zM419.84 785.92h184.32v-184.32h-184.32v184.32zM665.6 785.92h184.32v-184.32h-184.32v184.32zM174.080 785.92h184.32v-184.32h-184.32v184.32z" />
<glyph unicode="&#xe616;" d="M870.359 806.4h-716.759v-716.8h716.8v716.8h-0.041zM829.44 130.56h-634.88v537.047h634.88v-537.047zM256 603.873h512v-71.639h-512v71.639zM256 491.295h512v-71.68h-512v71.68zM256 378.634h512v-71.578h-512v71.578zM256 266.056h512v-71.782h-512v71.782z" />
<glyph unicode="&#xe617;" d="M153.6 806.4h325.816v-716.8h-325.816v716.8zM544.584 806.4h325.816v-40.96h-325.816v40.96zM544.584 709.857h325.816v-40.96h-325.816v40.96zM544.584 516.731h325.816v-40.96h-325.816v40.96zM544.584 420.229h325.816v-40.96h-325.816v40.96zM544.584 227.103h325.816v-40.96h-325.816v40.96zM544.584 130.56h325.816v-40.96h-325.816v40.96z" />
<glyph unicode="&#xe618;" d="M174.080 785.92h675.84v-430.080h-675.84v430.080zM419.84 294.4h184.32v-184.32h-184.32v184.32zM174.080 294.4h184.32v-184.32h-184.32v184.32zM665.6 294.4h184.32v-184.32h-184.32v184.32z" />
<glyph unicode="&#xe619;" d="M153.6 806.4v-519.496h716.8v519.496h-716.8zM826.962 330.342h-629.924v432.62h629.924v-432.62zM153.6 227.164h716.8v-137.564h-716.8v137.564z" />
<glyph unicode="&#xe61a;" d="M153.6 806.707h716.8v-159.437h-716.8v159.437zM544.604 588.534h325.796v-498.647h-325.796v498.647zM153.6 588.534h325.796v-498.647h-325.796v498.647z" />
<glyph unicode="&#xe61b;" d="M153.6 89.6h716.8v532.48h-716.8v-532.48zM346.644 130.56v450.56h68.833v-450.56h-68.833zM608.522 130.56v450.56h68.833v-450.56h-68.833zM153.6 806.83h716.8v-137.748h-716.8v137.748z" />
<glyph unicode="&#xe61c;" d="M153.6 89.6h716.8v137.564h-716.8v-137.564zM197.038 183.726h629.924v-50.688h-629.924v50.688zM153.6 806.4v-137.564h716.8v137.564h-716.8zM826.962 712.274h-629.924v50.688h629.924v-50.688zM239.8 650.363h106.189v-108.012h-106.189v108.012zM385.864 650.363h106.23v-108.012h-106.23v108.012zM531.968 650.363h106.209v-108.012h-106.209v108.012zM678.031 650.363h106.189v-108.012h-106.189v108.012zM239.8 502.026h106.189v-108.032h-106.189v108.032zM385.864 502.026h106.23v-108.032h-106.23v108.032zM531.968 502.026h106.209v-108.032h-106.209v108.032zM678.031 502.026h106.189v-108.032h-106.189v108.032zM239.8 353.669h106.189v-108.012h-106.189v108.012zM385.864 353.669h106.23v-108.012h-106.23v108.012zM531.968 353.669h106.209v-108.012h-106.209v108.012zM678.031 353.669h106.189v-108.012h-106.189v108.012z" />
<glyph unicode="&#xe61d;" d="M153.6 806.4v-519.496h716.8v519.496h-716.8zM826.962 330.342h-629.924v432.62h629.924v-432.62zM153.6 227.164h195.482v-137.564h-195.482v137.564zM674.918 227.164h195.482v-137.564h-195.482v137.564zM414.249 227.164h195.523v-137.564h-195.523v137.564z" />
<glyph unicode="&#xe61e;" d="M498.647 806.83h371.753v-716.8h-371.753v716.8zM153.6 806.83h111.084v-716.8h-111.084v716.8zM326.124 806.83h111.084v-716.8h-111.084v716.8z" />
<glyph unicode="&#xe61f;" d="M544.584 806.4h325.816v-716.8h-325.816v716.8zM153.6 545.731h325.816v-195.482h-325.816v195.482zM153.6 806.4h325.816v-195.502h-325.816v195.502zM153.6 285.102h325.816v-195.502h-325.816v195.502z" />
<glyph unicode="&#xe620;" d="M370.811 807.449h499.589v-717.439h-499.589v717.439zM153.6 807.449h152.044v-717.439h-152.044v717.439z" />
<glyph unicode="&#xe621;" d="M368.38 808.533h499.589v-367.066h-499.589v367.066zM155.373 807.449h152.044v-718.524h-152.044v718.524zM369.595 373.364h499.589v-282.456h-499.589v282.456z" />
<glyph unicode="&#xe622;" d="M153.6 806.4v-716.8h716.8v716.8h-716.8zM829.44 130.56h-634.88v634.88h634.88v-634.88zM358.4 704h409.6v-57.836h-409.6v57.836zM358.4 613.11h409.6v-57.733h-409.6v57.733zM358.4 522.363h409.6v-57.836h-409.6v57.836zM358.4 431.473h409.6v-57.713h-409.6v57.713zM358.4 340.705h409.6v-57.938h-409.6v57.938zM358.4 249.754h409.6v-57.754h-409.6v57.754zM256 704h57.836v-57.836h-57.836v57.836zM256 613.151h57.836v-57.815h-57.836v57.815zM256 522.342h57.836v-57.815h-57.836v57.815zM256 431.514h57.836v-57.836h-57.836v57.836zM256 340.685h57.836v-57.836h-57.836v57.836zM256 249.836h57.836v-57.836h-57.836v57.836z" />
<glyph unicode="&#xe623;" d="M327.352 621.957h369.275v-531.948h-369.275v531.948zM153.6 621.957h130.314v-531.948h-130.314v531.948zM153.6 806.83v-137.748h716.8v137.748h-716.8zM826.962 712.581h-629.924v50.749h629.924v-50.749zM740.086 621.957h130.314v-531.948h-130.314v531.948z" />
<glyph unicode="&#xe624;" d="M153.6 621.957h499.61v-531.948h-499.61v531.948zM718.356 806.83h152.044v-716.8h-152.044v716.8zM153.6 669.061h499.61v137.769h-499.61v-137.769zM197.038 763.31h412.713v-50.749h-412.713v50.749z" />
<glyph unicode="&#xe625;" d="M153.6 806.4h325.816v-716.8h-325.816v716.8zM544.584 545.751h325.816v-195.502h-325.816v195.502zM544.584 806.4h325.816v-195.482h-325.816v195.482zM544.584 285.082h325.816v-195.482h-325.816v195.482z" />
<glyph unicode="&#xe626;" d="M153.6 621.957h499.589v-531.948h-499.589v531.948zM718.356 621.957h152.044v-531.948h-152.044v531.948zM153.6 806.83v-137.748h716.8v137.748h-716.8zM197.038 763.31h629.924v-50.749h-629.924v50.749z" />
<glyph unicode="&#xe627;" d="M154.685 807.188h499.589v-436.49h-499.589v436.49zM718.356 806.364h152.044v-716.354h-152.044v716.354zM154.816 275.736h499.589v-184.829h-499.589v184.829z" />
<glyph unicode="&#xe628;" d="M153.6 806.4h716.8v-80.916h-716.8v80.916zM153.6 679.24h716.8v-80.957h-716.8v80.957zM153.6 552.038h716.8v-80.916h-716.8v80.916zM153.6 424.878h716.8v-80.916h-716.8v80.916zM153.6 297.697h716.8v-80.937h-716.8v80.937zM153.6 170.516h716.8v-80.916h-716.8v80.916z" />
<glyph unicode="&#xe629;" d="M870.359 806.4h-716.759v-716.8h716.8v716.8h-0.041zM829.399 765.44v-56.873h-61.44v56.873h61.44zM194.601 765.44h532.398v-56.873h-532.398v56.873zM194.56 667.607h532.439l0.041-537.047h-532.48v537.047zM829.44 130.56h-61.44l-0.041 537.047h61.481v-537.047z" />
<glyph unicode="&#xe62a;" d="M153.6 806.4v-716.8h716.8v716.8h-716.8zM829.44 130.56h-634.88v634.88h634.88v-634.88z" />
<glyph unicode="&#xe62b;" d="M153.6 806.4v-716.8h716.8v716.8h-716.8zM829.44 765.44v-546.12h-634.88v546.12h634.88zM388.239 683.95h105.001v-105.001h-105.001v105.001zM388.239 541.45h105.001v-105.001h-105.001v105.001zM388.239 398.95h105.001v-105.001h-105.001v105.001zM530.76 683.95h105.001v-105.001h-105.001v105.001zM530.76 541.45h105.001v-105.001h-105.001v105.001zM530.76 398.95h105.001v-105.001h-105.001v105.001zM673.239 683.95h105.001v-105.001h-105.001v105.001zM673.239 541.45h105.001v-105.001h-105.001v105.001zM673.239 398.95h105.001v-105.001h-105.001v105.001zM245.76 683.95h105.001v-105.001h-105.001v105.001zM245.76 541.45h105.001v-105.001h-105.001v105.001zM245.76 398.95h105.001v-105.001h-105.001v105.001z" />
<glyph unicode="&#xe62c;" d="M161.28 798.7h106.189v-108.032h-106.189v108.032zM307.343 798.7h106.23v-108.032h-106.23v108.032zM453.448 798.7h106.189v-108.032h-106.189v108.032zM599.511 798.7h106.189v-108.032h-106.189v108.032zM756.531 798.7h106.189v-108.032h-106.189v108.032zM161.28 650.342h106.189v-108.012h-106.189v108.012zM307.343 650.342h106.23v-108.012h-106.23v108.012zM453.448 650.342h106.189v-108.012h-106.189v108.012zM599.511 650.342h106.189v-108.012h-106.189v108.012zM756.531 650.342h106.189v-108.012h-106.189v108.012zM161.28 502.006h106.189v-108.032h-106.189v108.032zM307.343 502.006h106.23v-108.032h-106.23v108.032zM453.448 502.006h106.189v-108.032h-106.189v108.032zM599.511 502.006h106.189v-108.032h-106.189v108.032zM756.531 502.006h106.189v-108.032h-106.189v108.032zM161.28 353.649h106.189v-108.012h-106.189v108.012zM307.343 353.649h106.23v-108.012h-106.23v108.012zM453.448 353.649h106.189v-108.012h-106.189v108.012zM599.511 353.649h106.189v-108.012h-106.189v108.012zM756.531 353.649h106.189v-108.012h-106.189v108.012zM161.28 205.292h106.189v-108.032h-106.189v108.032zM307.343 205.292h106.23v-108.032h-106.23v108.032zM453.448 205.292h106.189v-108.032h-106.189v108.032zM599.511 205.292h106.189v-108.032h-106.189v108.032zM756.531 205.292h106.189v-108.032h-106.189v108.032z" />
<glyph unicode="&#xe62d;" d="M153.6 89.6h716.8v137.564h-716.8v-137.564zM197.038 183.726h629.924v-50.688h-629.924v50.688zM153.6 806.4v-137.564h716.8v137.564h-716.8zM826.962 712.274h-629.924v50.688h629.924v-50.688zM153.6 621.752h193.044v-347.525h-193.044v347.525zM415.478 621.752h193.044v-347.525h-193.044v347.525zM677.356 621.752h193.044v-347.525h-193.044v347.525z" />
<glyph unicode="&#xe62e;" d="M153.6 89.6h716.8v716.8h-716.8v-716.8zM829.44 765.44v-634.88h-634.88v634.88h634.88zM245.76 325.12h532.48v-143.36h-532.48v143.36zM245.76 519.68h532.48v-143.36h-532.48v143.36zM245.76 714.24h532.48v-143.36h-532.48v143.36z" />
<glyph unicode="&#xe62f;" d="M153.6 806.4v-716.8h716.8v716.8h-716.8zM829.44 130.56h-634.88v634.88h634.88v-634.88zM245.76 714.24h143.36v-532.48h-143.36v532.48zM440.32 714.24h143.36v-532.48h-143.36v532.48zM634.88 714.24h143.36v-532.48h-143.36v532.48z" />
<glyph unicode="&#xe630;" d="M870.38 806.4h-716.759v-138.793h716.739v138.793zM829.42 708.567h-634.839v56.873h634.819v-56.873zM153.6 629.412h716.8v-226.755h-716.8v226.755zM153.6 357.315h716.8v-267.715h-716.8v267.715z" />
<glyph unicode="&#xe631;" d="M544.604 621.752h325.796v-347.525h-325.796v347.525zM153.6 621.752h325.796v-347.525h-325.796v347.525zM153.6 89.6h716.8v137.564h-716.8v-137.564zM197.038 183.726h629.924v-50.688h-629.924v50.688zM153.6 806.4v-137.564h716.8v137.564h-716.8zM826.962 712.274h-629.924v50.688h629.924v-50.688z" />
<glyph unicode="&#xe632;" d="M153.6 806.4v-716.8h716.8v716.8h-716.8zM829.44 130.56h-634.88v634.88h634.88v-634.88zM245.76 714.24h235.52v-532.48h-235.52v532.48zM542.72 714.24h235.52v-532.48h-235.52v532.48z" />
<glyph unicode="&#xe633;" d="M153.6 406.651h716.8v-317.051h-716.8v317.051zM153.6 806.4h716.8v-317.051h-716.8v317.051z" />
<glyph unicode="&#xe634;" d="M153.6 806.359h188.047v-317.44h-188.047v317.44zM153.6 406.999h188.047v-317.44h-188.047v317.44zM417.792 406.999h188.436v-317.44h-188.436v317.44zM417.792 806.359h188.436v-317.44h-188.436v317.44zM682.394 806.359h188.006v-317.44h-188.006v317.44zM682.394 406.999h188.006v-317.44h-188.006v317.44z" />
<glyph unicode="&#xe635;" d="M153.6 806.83h198.948v-716.8h-198.948v716.8zM826.899 806.4h198.948v-716.8h-198.948v716.8zM481.95 806.4h198.948v-383.783h-198.948v383.783zM484.119 284.637h198.948v-197.207h-198.948v197.207z" />
<glyph unicode="&#xe636;" d="M153.6 806.83h198.948v-716.8h-198.948v716.8zM826.899 806.4h198.948v-716.8h-198.948v716.8zM481.95 806.4h198.948v-716.8h-198.948v716.8z" />
<glyph unicode="&#xe637;" d="M0.217 960.564h90.077v-1026.69h-90.077v1026.69zM234.348 936.57h446.828v-238.557h-446.828v238.557zM236.518 571.618h700.659v-238.557h-700.659v238.557z" />
<glyph unicode="&#xe638;" d="M544.604 807.905h325.796v-718.018h-325.796v718.018zM153.6 806.371h325.796v-716.484h-325.796v716.484z" />
<glyph unicode="&#xe639;" d="M154.685 808.533h713.284v-322.592h-713.284v322.592zM154.816 373.364h714.369v-282.456h-714.369v282.456z" />
<glyph unicode="&#xe63a;" d="M466.961 960.564h90.077v-1026.69h-90.077v1026.69zM288.586 936.57h446.828v-238.557h-446.828v238.557zM161.671 571.618h700.659v-238.557h-700.659v238.557z" />
<glyph unicode="&#xe63b;" d="M1024 960.564h-90.077v-1026.69h90.077v1026.69zM860.16 936.57h-446.828v-238.557h446.828v238.557zM860.16 571.618h-700.659v-238.557h700.659v238.557z" />
<glyph unicode="&#xe63c;" d="M1025.866-66.43v90.077h-1026.69v-90.077h1026.69zM556.431 79.707v446.828h-238.557v-446.828h238.557zM238.601 84.654v700.659h-238.557v-700.659h238.557z" />
<glyph unicode="&#xe63d;" d="M1028.035 868.621v90.077h-1026.69v-90.077h1026.69zM556.431 337.877v446.828h-238.557v-446.828h238.557zM238.601 84.654v700.659h-238.557v-700.659h238.557z" />
<glyph unicode="&#xe63e;" d="M429.657 157.331v581.337h-340.523v-581.337h340.523zM934.866 157.331v581.337h-340.523v-581.337h340.523z" />
<glyph unicode="&#xe63f;" d="M975.143 267.976v360.049h-340.523v-360.049h340.523zM389.38 267.976v360.049h-340.523v-360.049h340.523z" />
<glyph unicode="&#xe640;" d="M405.109 399.23v97.54h-340.523v-97.54h340.523zM959.414 399.23v97.54h-340.523v-97.54h340.523z" />
</font>
</defs>
</svg>
